# This file uses centimeters as units for non-parametric coordinates.

v 0.760846 -1.000000 -0.247214
v 0.647214 -1.000000 -0.470228
v 0.470228 -1.000000 -0.647214
v 0.247214 -1.000000 -0.760846
v 0.000000 -1.000000 -0.800000
v -0.247214 -1.000000 -0.760846
v -0.470228 -1.000000 -0.647214
v -0.647214 -1.000000 -0.470228
v -0.760845 -1.000000 -0.247214
v -0.800000 -1.000000 0.000000
v -0.760845 -1.000000 0.247214
v -0.647214 -1.000000 0.470228
v -0.470228 -1.000000 0.647214
v -0.247214 -1.000000 0.760845
v -0.000000 -1.000000 0.800000
v 0.247214 -1.000000 0.760845
v 0.470228 -1.000000 0.647214
v 0.647214 -1.000000 0.470228
v 0.760845 -1.000000 0.247214
v 0.800000 -1.000000 0.000000
v 0.760846 1.000000 -0.247214
v 0.647214 1.000000 -0.470228
v 0.470228 1.000000 -0.647214
v 0.247214 1.000000 -0.760846
v 0.000000 1.000000 -0.800000
v -0.247214 1.000000 -0.760846
v -0.470228 1.000000 -0.647214
v -0.647214 1.000000 -0.470228
v -0.760845 1.000000 -0.247214
v -0.800000 1.000000 0.000000
v -0.760845 1.000000 0.247214
v -0.647214 1.000000 0.470228
v -0.470228 1.000000 0.647214
v -0.247214 1.000000 0.760845
v -0.000000 1.000000 0.800000
v 0.247214 1.000000 0.760845
v 0.470228 1.000000 0.647214
v 0.647214 1.000000 0.470228
v 0.760845 1.000000 0.247214
v 0.800000 1.000000 0.000000
v 0.000000 -1.000000 0.000000
v 0.132714 1.000000 -0.043121
v 0.112893 1.000000 -0.082022
v 0.082022 1.000000 -0.112893
v 0.043121 1.000000 -0.132714
v 0.000000 1.000000 -0.139543
v -0.043121 1.000000 -0.132714
v -0.082022 1.000000 -0.112893
v -0.112893 1.000000 -0.082022
v -0.132714 1.000000 -0.043121
v -0.139543 1.000000 0.000000
v -0.132714 1.000000 0.043121
v -0.112893 1.000000 0.082022
v -0.082022 1.000000 0.112893
v -0.043121 1.000000 0.132714
v 0.000000 1.000000 0.139543
v 0.043121 1.000000 0.132714
v 0.082021 1.000000 0.112893
v 0.112893 1.000000 0.082022
v 0.132714 1.000000 0.043121
v 0.139544 1.000000 -0.000000
v 0.132714 1.100000 -0.043121
v 0.112893 1.100000 -0.082022
v 0.000000 1.100000 0.000000
v 0.082022 1.100000 -0.112893
v 0.043121 1.100000 -0.132714
v 0.000000 1.100000 -0.139543
v -0.043121 1.100000 -0.132714
v -0.082022 1.100000 -0.112893
v -0.112893 1.100000 -0.082022
v -0.132714 1.100000 -0.043121
v -0.139543 1.100000 0.000000
v -0.132714 1.100000 0.043121
v -0.112893 1.100000 0.082022
v -0.082022 1.100000 0.112893
v -0.043121 1.100000 0.132714
v 0.000000 1.100000 0.139543
v 0.043121 1.100000 0.132714
v 0.082021 1.100000 0.112893
v 0.112893 1.100000 0.082022
v 0.132714 1.100000 0.043121
v 0.139544 1.100000 -0.000000
vt 0.211822 0.001648
vt 0.264140 0.001648
vt 0.264140 0.377003
vt 0.211822 0.377003
vt 0.305661 0.001648
vt 0.305661 0.377003
vt 0.153826 0.001648
vt 0.153826 0.377003
vt 0.095831 0.001648
vt 0.095831 0.377003
vt 0.043512 0.001648
vt 0.043512 0.377003
vt 0.001992 0.001648
vt 0.001992 0.377003
vt 0.581618 0.001648
vt 0.633937 0.001648
vt 0.633937 0.377003
vt 0.581618 0.377003
vt 0.691932 0.001648
vt 0.691932 0.377003
vt 0.540098 0.001648
vt 0.540098 0.377003
vt 0.749928 0.001648
vt 0.749928 0.377003
vt 0.802246 0.001648
vt 0.802246 0.377003
vt 0.843766 0.001648
vt 0.843766 0.377003
vt 0.074298 0.776710
vt 0.074298 0.767584
vt 0.093066 0.767584
vt 0.093066 0.776710
vt 0.074298 0.760341
vt 0.093066 0.760341
vt 0.074298 0.786826
vt 0.093066 0.786826
vt 0.074298 0.796942
vt 0.093066 0.796942
vt 0.074298 0.806068
vt 0.093066 0.806068
vt 0.074298 0.813310
vt 0.093066 0.813310
vt 0.099635 0.806068
vt 0.099635 0.796942
vt 0.118402 0.796942
vt 0.118402 0.806068
vt 0.099635 0.786826
vt 0.118402 0.786826
vt 0.099635 0.813310
vt 0.118402 0.813310
vt 0.099635 0.776710
vt 0.118402 0.776710
vt 0.099635 0.767584
vt 0.118402 0.767584
vt 0.099635 0.760341
vt 0.118402 0.760341
vt 0.735401 0.458358
vt 0.762059 0.510677
vt 0.583567 0.568672
vt 0.771245 0.568672
vt 0.693881 0.416838
vt 0.762059 0.626668
vt 0.641563 0.390180
vt 0.735401 0.678986
vt 0.583567 0.380995
vt 0.693881 0.720507
vt 0.525572 0.390180
vt 0.641563 0.747164
vt 0.473253 0.416838
vt 0.583567 0.756350
vt 0.431733 0.458358
vt 0.525572 0.747164
vt 0.405075 0.510677
vt 0.473253 0.720507
vt 0.395890 0.568672
vt 0.431733 0.678986
vt 0.405075 0.626668
vt 0.065863 0.803194
vt 0.061213 0.812320
vt 0.034728 0.793078
vt 0.053970 0.819562
vt 0.067465 0.793078
vt 0.044845 0.824212
vt 0.065863 0.782962
vt 0.034728 0.825814
vt 0.061213 0.773836
vt 0.024612 0.824212
vt 0.053970 0.766593
vt 0.015486 0.819562
vt 0.044845 0.761944
vt 0.008244 0.812320
vt 0.034728 0.760341
vt 0.003594 0.803194
vt 0.024612 0.761944
vt 0.001992 0.793078
vt 0.015486 0.766593
vt 0.003594 0.782962
vt 0.008244 0.773836
vt 0.380569 0.626668
vt 0.353911 0.678986
vt 0.228561 0.587914
vt 0.233211 0.578788
vt 0.312391 0.720507
vt 0.221319 0.595157
vt 0.389754 0.568672
vt 0.234813 0.568672
vt 0.260072 0.747164
vt 0.212193 0.599806
vt 0.380569 0.510677
vt 0.233211 0.558556
vt 0.202077 0.756350
vt 0.202077 0.601409
vt 0.353911 0.458358
vt 0.228561 0.549430
vt 0.144081 0.747164
vt 0.191961 0.599806
vt 0.312391 0.416838
vt 0.221319 0.542188
vt 0.091763 0.720507
vt 0.182835 0.595157
vt 0.260072 0.390180
vt 0.212193 0.537538
vt 0.050243 0.678986
vt 0.175592 0.587914
vt 0.202077 0.380995
vt 0.202077 0.535936
vt 0.023585 0.626668
vt 0.170943 0.578788
vt 0.144081 0.390180
vt 0.191961 0.537538
vt 0.014399 0.568672
vt 0.169340 0.568672
vt 0.091763 0.416838
vt 0.182835 0.542188
vt 0.023585 0.510677
vt 0.170943 0.558556
vt 0.050243 0.458358
vt 0.175593 0.549430
vt 0.312070 0.001648
vt 0.364389 0.001648
vt 0.364389 0.377003
vt 0.312070 0.377003
vt 0.422385 0.001648
vt 0.422384 0.377003
vt 0.480380 0.001648
vt 0.480380 0.377003
vt 0.532699 0.001648
vt 0.532699 0.377003
vt 0.777380 0.380995
vt 0.829699 0.380995
vt 0.829699 0.756350
vt 0.777380 0.756350
vt 0.887694 0.380995
vt 0.887694 0.756350
vt 0.945690 0.380995
vt 0.945690 0.756350
vt 0.998008 0.380995
vt 0.998008 0.756350
vt 0.143739 0.760341
vt 0.143739 0.769467
vt 0.124971 0.769467
vt 0.124971 0.760341
vt 0.143739 0.779583
vt 0.124971 0.779583
vt 0.143739 0.789699
vt 0.124971 0.789699
vt 0.143739 0.798825
vt 0.124971 0.798825
vt 0.150307 0.798825
vt 0.150307 0.789699
vt 0.169075 0.789699
vt 0.169075 0.798825
vt 0.150307 0.779583
vt 0.169075 0.779583
vt 0.150307 0.769467
vt 0.169075 0.769467
vt 0.150307 0.760341
vt 0.169075 0.760341
vn 0.951057 0.000000 -0.309016
vn 0.809017 0.000000 -0.587785
vn 0.809017 0.000000 -0.587785
vn 0.951057 0.000000 -0.309016
vn 0.587785 0.000000 -0.809017
vn 0.587785 0.000000 -0.809017
vn 0.309017 0.000000 -0.951057
vn 0.309017 0.000000 -0.951057
vn -0.000000 0.000000 -1.000000
vn -0.000000 0.000000 -1.000000
vn -0.309017 0.000000 -0.951056
vn -0.309017 0.000000 -0.951056
vn -0.587785 0.000000 -0.809017
vn -0.587785 0.000000 -0.809017
vn -0.809017 0.000000 -0.587785
vn -0.809017 0.000000 -0.587785
vn -0.951057 0.000000 -0.309017
vn -0.951057 0.000000 -0.309017
vn -1.000000 0.000000 0.000000
vn -1.000000 0.000000 0.000000
vn -0.951056 0.000000 0.309017
vn -0.951056 0.000000 0.309017
vn -0.809017 0.000000 0.587785
vn -0.809017 0.000000 0.587785
vn -0.587785 0.000000 0.809017
vn -0.587785 0.000000 0.809017
vn -0.309017 0.000000 0.951057
vn -0.309017 0.000000 0.951057
vn 0.000000 0.000000 1.000000
vn 0.000000 0.000000 1.000000
vn 0.309017 0.000000 0.951056
vn 0.309017 0.000000 0.951056
vn 0.587785 0.000000 0.809017
vn 0.587785 0.000000 0.809017
vn 0.809017 0.000000 0.587785
vn 0.809017 0.000000 0.587785
vn 0.951056 0.000000 0.309017
vn 0.951056 0.000000 0.309017
vn 1.000000 0.000000 0.000001
vn 1.000000 0.000000 0.000001
vn 0.000000 -1.000000 0.000000
vn 0.000000 -1.000000 0.000000
vn 0.000000 -1.000000 0.000000
vn 0.000000 -1.000000 0.000000
vn 0.000000 -1.000000 0.000000
vn 0.000000 -1.000000 0.000000
vn 0.000000 -1.000000 0.000000
vn 0.000000 -1.000000 0.000000
vn 0.000000 -1.000000 0.000000
vn 0.000000 -1.000000 0.000000
vn 0.000000 -1.000000 0.000000
vn 0.000000 -1.000000 0.000000
vn 0.000000 -1.000000 0.000000
vn 0.000000 -1.000000 0.000000
vn 0.000000 -1.000000 0.000000
vn 0.000000 -1.000000 0.000000
vn 0.000000 -1.000000 0.000000
vn 0.000000 -1.000000 0.000000
vn 0.000000 -1.000000 0.000000
vn 0.000000 -1.000000 0.000000
vn 0.000000 -1.000000 0.000000
vn 0.000001 1.000000 0.000000
vn 0.000001 1.000000 0.000000
vn 0.000000 1.000000 0.000000
vn 0.000001 1.000000 0.000001
vn 0.000000 1.000000 0.000001
vn -0.000000 1.000000 0.000000
vn -0.000000 1.000000 -0.000000
vn -0.000001 1.000000 -0.000000
vn -0.000001 1.000000 0.000000
vn -0.000001 1.000000 0.000000
vn -0.000001 1.000000 0.000000
vn -0.000001 1.000000 0.000000
vn -0.000001 1.000000 0.000000
vn -0.000001 1.000000 0.000000
vn -0.000000 1.000000 0.000000
vn -0.000000 1.000000 0.000000
vn 0.000000 1.000000 0.000000
vn 0.000001 1.000000 0.000000
vn 0.000001 1.000000 0.000000
vn 0.000001 1.000000 0.000000
vn 0.000001 1.000000 0.000000
vn 0.000000 1.000000 -0.000000
vn 0.000000 1.000000 0.000000
vn 0.000000 1.000000 -0.000000
vn 0.000000 1.000000 -0.000000
vn 0.000000 1.000000 0.000000
vn 0.000000 1.000000 0.000000
vn 0.000000 1.000000 0.000000
vn 0.000000 1.000000 0.000000
vn 0.000000 1.000000 0.000000
vn 0.000000 1.000000 0.000000
vn 0.000000 1.000000 0.000000
vn 0.000000 1.000000 0.000000
vn 0.000000 1.000000 0.000000
vn 0.000000 1.000000 0.000000
vn 0.000000 1.000000 0.000000
vn 0.000000 1.000000 0.000000
vn 0.000000 1.000000 0.000000
vn 0.000000 1.000000 0.000000
vn 0.000000 1.000000 0.000000
vn 0.000000 1.000000 0.000000
vn 0.000000 1.000000 0.000000
vn 0.000000 1.000000 0.000000
vn 0.000000 1.000000 0.000000
vn 0.000000 1.000000 0.000000
vn 0.000000 1.000000 -0.000000
vn 0.000000 1.000000 -0.000000
vn 0.000000 1.000000 -0.000000
vn 0.000000 1.000000 -0.000000
vn 0.000000 1.000000 0.000000
vn 0.000000 1.000000 0.000000
vn 0.000000 1.000000 0.000000
vn 0.000000 1.000000 0.000000
vn 0.000000 1.000000 0.000000
vn 0.000000 1.000000 0.000000
vn 0.000000 1.000000 0.000000
vn 0.000000 1.000000 0.000000
vn 0.000000 1.000000 0.000000
vn 0.000000 1.000000 0.000000
vn 0.000000 1.000000 0.000000
vn 0.000000 1.000000 0.000000
vn 0.951056 0.000000 -0.309017
vn 0.809017 0.000000 -0.587785
vn 0.809017 0.000000 -0.587785
vn 0.951056 0.000000 -0.309017
vn 0.587784 0.000000 -0.809018
vn 0.587784 0.000000 -0.809018
vn 0.309017 0.000000 -0.951057
vn 0.309017 0.000000 -0.951057
vn -0.000000 0.000000 -1.000000
vn -0.000000 0.000000 -1.000000
vn -0.309017 0.000000 -0.951056
vn -0.309017 0.000000 -0.951056
vn -0.587785 0.000000 -0.809017
vn -0.587785 0.000000 -0.809017
vn -0.809018 0.000000 -0.587784
vn -0.809018 0.000000 -0.587784
vn -0.951057 0.000000 -0.309017
vn -0.951057 0.000000 -0.309017
vn -1.000000 0.000000 0.000000
vn -1.000000 0.000000 0.000000
vn -0.951056 0.000000 0.309017
vn -0.951056 0.000000 0.309017
vn -0.809018 0.000000 0.587784
vn -0.809018 0.000000 0.587784
vn -0.587786 0.000000 0.809017
vn -0.587786 0.000000 0.809017
vn -0.309018 0.000000 0.951056
vn -0.309018 0.000000 0.951056
vn -0.000002 0.000000 1.000000
vn -0.000002 0.000000 1.000000
vn 0.309018 0.000000 0.951056
vn 0.309018 0.000000 0.951056
vn 0.587786 0.000000 0.809017
vn 0.587786 0.000000 0.809017
vn 0.809017 0.000000 0.587786
vn 0.809017 0.000000 0.587786
vn 0.951056 0.000000 0.309018
vn 0.951056 0.000000 0.309018
vn 1.000000 0.000000 0.000001
vn 1.000000 0.000000 0.000001
f 1/1/1 2/2/2 22/3/3 21/4/4
f 2/2/2 3/5/5 23/6/6 22/3/3
f 3/139/5 4/140/7 24/141/8 23/142/6
f 4/140/7 5/143/9 25/144/10 24/141/8
f 5/143/9 6/145/11 26/146/12 25/144/10
f 6/145/11 7/147/13 27/148/14 26/146/12
f 7/21/13 8/15/15 28/18/16 27/22/14
f 8/15/15 9/16/17 29/17/18 28/18/16
f 9/16/17 10/19/19 30/20/20 29/17/18
f 10/19/19 11/23/21 31/24/22 30/20/20
f 11/23/21 12/25/23 32/26/24 31/24/22
f 12/25/23 13/27/25 33/28/26 32/26/24
f 13/149/25 14/150/27 34/151/28 33/152/26
f 14/150/27 15/153/29 35/154/30 34/151/28
f 15/153/29 16/155/31 36/156/32 35/154/30
f 16/155/31 17/157/33 37/158/34 36/156/32
f 17/13/33 18/11/35 38/12/36 37/14/34
f 18/11/35 19/9/37 39/10/38 38/12/36
f 19/9/37 20/7/39 40/8/40 39/10/38
f 20/7/39 1/1/1 21/4/4 40/8/40
f 2/57/41 1/58/42 41/59/43
f 3/61/44 2/57/41 41/59/43
f 4/63/45 3/61/44 41/59/43
f 5/65/46 4/63/45 41/59/43
f 6/67/47 5/65/46 41/59/43
f 7/69/48 6/67/47 41/59/43
f 8/71/49 7/69/48 41/59/43
f 9/73/50 8/71/49 41/59/43
f 10/75/51 9/73/50 41/59/43
f 11/77/52 10/75/51 41/59/43
f 12/76/53 11/77/52 41/59/43
f 13/74/54 12/76/53 41/59/43
f 14/72/55 13/74/54 41/59/43
f 15/70/56 14/72/55 41/59/43
f 16/68/57 15/70/56 41/59/43
f 17/66/58 16/68/57 41/59/43
f 18/64/59 17/66/58 41/59/43
f 19/62/60 18/64/59 41/59/43
f 20/60/61 19/62/60 41/59/43
f 1/58/42 20/60/61 41/59/43
f 62/78/62 63/79/63 64/80/64
f 63/79/63 65/81/65 64/80/64
f 65/81/65 66/83/66 64/80/64
f 66/83/66 67/85/67 64/80/64
f 67/85/67 68/87/68 64/80/64
f 68/87/68 69/89/69 64/80/64
f 69/89/69 70/91/70 64/80/64
f 70/91/70 71/93/71 64/80/64
f 71/93/71 72/95/72 64/80/64
f 72/95/72 73/97/73 64/80/64
f 73/97/73 74/98/74 64/80/64
f 74/98/74 75/96/75 64/80/64
f 75/96/75 76/94/76 64/80/64
f 76/94/76 77/92/77 64/80/64
f 77/92/77 78/90/78 64/80/64
f 78/90/78 79/88/79 64/80/64
f 79/88/79 80/86/80 64/80/64
f 80/86/80 81/84/81 64/80/64
f 81/84/81 82/82/82 64/80/64
f 82/82/82 62/78/62 64/80/64
f 21/99/83 22/100/84 43/101/85 42/102/86
f 22/100/84 23/103/87 44/104/88 43/101/85
f 23/103/87 24/107/89 45/108/90 44/104/88
f 24/107/89 25/111/91 46/112/92 45/108/90
f 25/111/91 26/115/93 47/116/94 46/112/92
f 26/115/93 27/119/95 48/120/96 47/116/94
f 27/119/95 28/123/97 49/124/98 48/120/96
f 28/123/97 29/127/99 50/128/100 49/124/98
f 29/127/99 30/131/101 51/132/102 50/128/100
f 30/131/101 31/135/103 52/136/104 51/132/102
f 31/135/103 32/137/105 53/138/106 52/136/104
f 32/137/105 33/133/107 54/134/108 53/138/106
f 33/133/107 34/129/109 55/130/110 54/134/108
f 34/129/109 35/125/111 56/126/112 55/130/110
f 35/125/111 36/121/113 57/122/114 56/126/112
f 36/121/113 37/117/115 58/118/116 57/122/114
f 37/117/115 38/113/117 59/114/118 58/118/116
f 38/113/117 39/109/119 60/110/120 59/114/118
f 39/109/119 40/105/121 61/106/122 60/110/120
f 40/105/121 21/99/83 42/102/86 61/106/122
f 42/29/123 43/30/124 63/31/125 62/32/126
f 43/30/124 44/33/127 65/34/128 63/31/125
f 44/159/127 45/160/129 66/161/130 65/162/128
f 45/160/129 46/163/131 67/164/132 66/161/130
f 46/163/131 47/165/133 68/166/134 67/164/132
f 47/165/133 48/167/135 69/168/136 68/166/134
f 48/49/135 49/43/137 70/46/138 69/50/136
f 49/43/137 50/44/139 71/45/140 70/46/138
f 50/44/139 51/47/141 72/48/142 71/45/140
f 51/47/141 52/51/143 73/52/144 72/48/142
f 52/51/143 53/53/145 74/54/146 73/52/144
f 53/53/145 54/55/147 75/56/148 74/54/146
f 54/169/147 55/170/149 76/171/150 75/172/148
f 55/170/149 56/173/151 77/174/152 76/171/150
f 56/173/151 57/175/153 78/176/154 77/174/152
f 57/175/153 58/177/155 79/178/156 78/176/154
f 58/41/155 59/39/157 80/40/158 79/42/156
f 59/39/157 60/37/159 81/38/160 80/40/158
f 60/37/159 61/35/161 82/36/162 81/38/160
f 61/35/161 42/29/123 62/32/126 82/36/162
