# This file uses centimeters as units for non-parametric coordinates.

v 0.951057 -0.187727 -0.309017
v 0.809018 -0.187727 -0.587786
v 0.587786 -0.187727 -0.809017
v 0.309017 -0.187727 -0.951057
v 0.000000 -0.187727 -1.000000
v -0.309017 -0.187727 -0.951057
v -0.587785 -0.187727 -0.809017
v -0.809017 -0.187727 -0.587785
v -0.951057 -0.187727 -0.309017
v -1.000000 -0.187727 0.000000
v -0.951057 -0.187727 0.309017
v -0.809017 -0.187727 0.587785
v -0.587785 -0.187727 0.809017
v -0.309017 -0.187727 0.951057
v -0.000000 -0.187727 1.000000
v 0.309017 -0.187727 0.951057
v 0.587785 -0.187727 0.809017
v 0.809017 -0.187727 0.587785
v 0.951057 -0.187727 0.309017
v 1.000000 -0.187727 0.000000
v 0.951057 0.000000 -0.309017
v 0.809018 0.000000 -0.587786
v 0.587786 0.000000 -0.809017
v 0.309017 0.000000 -0.951057
v 0.000000 0.000000 -1.000000
v -0.309017 0.000000 -0.951057
v -0.587785 0.000000 -0.809017
v -0.809017 0.000000 -0.587785
v -0.951057 0.000000 -0.309017
v -1.000000 0.000000 0.000000
v -0.951057 0.000000 0.309017
v -0.809017 0.000000 0.587785
v -0.587785 0.000000 0.809017
v -0.309017 0.000000 0.951057
v -0.000000 0.000000 1.000000
v 0.309017 0.000000 0.951057
v 0.587785 0.000000 0.809017
v 0.809017 0.000000 0.587785
v 0.951057 0.000000 0.309017
v 1.000000 0.000000 0.000000
v 0.000000 -0.187727 0.000000
v 0.000000 0.260833 0.000000
v 1.232861 -0.000000 -0.400581
v 1.048735 -0.000000 -0.761950
v 1.048735 0.260833 -0.761950
v 1.232861 0.260833 -0.400581
v 0.761950 -0.000000 -1.048735
v 0.761950 0.260833 -1.048735
v 0.400581 0.000000 -1.232861
v 0.400581 0.260833 -1.232861
v -0.000000 0.000000 -1.296307
v -0.000000 0.260833 -1.296307
v -0.400581 0.000000 -1.232861
v -0.400581 0.260833 -1.232861
v -0.761950 0.000000 -1.048734
v -0.761950 0.260833 -1.048734
v -1.048734 -0.000000 -0.761950
v -1.048734 0.260833 -0.761950
v -1.232861 -0.000000 -0.400581
v -1.232861 0.260833 -0.400581
v -1.296307 0.000000 0.000000
v -1.296307 0.260833 0.000000
v -1.232861 0.000000 0.400581
v -1.232861 0.260833 0.400581
v -1.048734 0.000000 0.761950
v -1.048734 0.260833 0.761950
v -0.761950 0.000000 1.048734
v -0.761950 0.260833 1.048734
v -0.400581 0.000000 1.232861
v -0.400581 0.260833 1.232861
v -0.000000 0.000000 1.296307
v -0.000000 0.260833 1.296307
v 0.400581 0.000000 1.232861
v 0.400581 0.260833 1.232861
v 0.761950 0.000000 1.048734
v 0.761950 0.260833 1.048734
v 1.048734 0.000000 0.761950
v 1.048734 0.260833 0.761950
v 1.232861 0.000000 0.400581
v 1.232861 0.260833 0.400581
v 1.296307 0.000000 0.000000
v 1.296307 0.260833 0.000000
vt 0.344509 0.580474
vt 0.344509 0.528689
vt 0.414256 0.528689
vt 0.414256 0.580474
vt 0.344509 0.487592
vt 0.414256 0.487592
vt 0.344509 0.637879
vt 0.414256 0.637879
vt 0.344509 0.695284
vt 0.414256 0.695284
vt 0.344509 0.747069
vt 0.414256 0.747069
vt 0.344509 0.788167
vt 0.414256 0.788167
vt 0.268628 0.747070
vt 0.268628 0.695284
vt 0.338374 0.695284
vt 0.338374 0.747070
vt 0.268628 0.637879
vt 0.338374 0.637879
vt 0.268628 0.788167
vt 0.338374 0.788167
vt 0.268628 0.580475
vt 0.338374 0.580475
vt 0.268628 0.528689
vt 0.338374 0.528689
vt 0.268628 0.487592
vt 0.338374 0.487592
vt 0.901100 0.607996
vt 0.901100 0.540866
vt 0.998008 0.540866
vt 0.998008 0.607996
vt 0.901100 0.487592
vt 0.998008 0.487592
vt 0.901100 0.682411
vt 0.998008 0.682411
vt 0.901100 0.756825
vt 0.998008 0.756825
vt 0.901100 0.823955
vt 0.998008 0.823955
vt 0.901100 0.877229
vt 0.998008 0.877229
vt 0.798057 0.823955
vt 0.798057 0.756825
vt 0.894965 0.756825
vt 0.894965 0.823955
vt 0.798057 0.682411
vt 0.894965 0.682411
vt 0.798057 0.877229
vt 0.894965 0.877229
vt 0.798057 0.607996
vt 0.894965 0.607996
vt 0.798057 0.540866
vt 0.894965 0.540866
vt 0.798057 0.487592
vt 0.894965 0.487592
vt 0.756444 0.564167
vt 0.782830 0.615953
vt 0.606157 0.673357
vt 0.791922 0.673357
vt 0.715347 0.523070
vt 0.782830 0.730762
vt 0.663561 0.496684
vt 0.756444 0.782548
vt 0.606157 0.487592
vt 0.715347 0.823645
vt 0.548752 0.496684
vt 0.663561 0.850031
vt 0.496966 0.523070
vt 0.606157 0.859123
vt 0.455869 0.564167
vt 0.548752 0.850031
vt 0.429483 0.615953
vt 0.496966 0.823645
vt 0.420391 0.673357
vt 0.455869 0.782548
vt 0.429483 0.730762
vt 0.242801 0.242791
vt 0.471824 0.317205
vt 0.437620 0.384335
vt 0.483610 0.242791
vt 0.384345 0.437610
vt 0.471824 0.168377
vt 0.317215 0.471814
vt 0.437620 0.101247
vt 0.242801 0.483600
vt 0.384345 0.047973
vt 0.168387 0.471814
vt 0.317215 0.013768
vt 0.101257 0.437610
vt 0.242801 0.001982
vt 0.047982 0.384335
vt 0.168387 0.013768
vt 0.013778 0.317205
vt 0.101257 0.047973
vt 0.001992 0.242791
vt 0.047982 0.101247
vt 0.013778 0.168377
vt 0.908857 0.185387
vt 0.882471 0.133601
vt 0.927002 0.101247
vt 0.961206 0.168377
vt 0.841373 0.092504
vt 0.873727 0.047973
vt 0.917949 0.242791
vt 0.972992 0.242791
vt 0.789588 0.066118
vt 0.806597 0.013768
vt 0.908857 0.300196
vt 0.961206 0.317205
vt 0.732183 0.057026
vt 0.732183 0.001982
vt 0.882471 0.351982
vt 0.927002 0.384335
vt 0.674778 0.066118
vt 0.657769 0.013768
vt 0.841373 0.393079
vt 0.873727 0.437610
vt 0.622993 0.092504
vt 0.590639 0.047973
vt 0.789588 0.419465
vt 0.806597 0.471814
vt 0.581896 0.133601
vt 0.537364 0.101247
vt 0.732183 0.428557
vt 0.732183 0.483600
vt 0.555510 0.185387
vt 0.503160 0.168377
vt 0.674778 0.419465
vt 0.657769 0.471814
vt 0.546418 0.242791
vt 0.491374 0.242791
vt 0.622993 0.393079
vt 0.590639 0.437610
vt 0.555510 0.300196
vt 0.503160 0.317205
vt 0.581896 0.351982
vt 0.537364 0.384335
vt 0.071738 0.774671
vt 0.071738 0.826457
vt 0.001992 0.826457
vt 0.001992 0.774671
vt 0.071738 0.883861
vt 0.001992 0.883861
vt 0.071738 0.941266
vt 0.001992 0.941266
vt 0.071738 0.993052
vt 0.001992 0.993052
vt 0.078196 0.993052
vt 0.078196 0.941266
vt 0.147942 0.941266
vt 0.147942 0.993052
vt 0.078196 0.883861
vt 0.147942 0.883861
vt 0.078196 0.826457
vt 0.147942 0.826457
vt 0.078196 0.774671
vt 0.147942 0.774671
vt 0.262492 0.487592
vt 0.262492 0.554722
vt 0.165585 0.554722
vt 0.165585 0.487592
vt 0.262492 0.629136
vt 0.165585 0.629136
vt 0.262492 0.703550
vt 0.165585 0.703550
vt 0.262492 0.770680
vt 0.165585 0.770680
vt 0.062542 0.770680
vt 0.062542 0.703550
vt 0.159449 0.703550
vt 0.159449 0.770680
vt 0.062542 0.629136
vt 0.159449 0.629136
vt 0.062542 0.554722
vt 0.159449 0.554722
vt 0.062542 0.487592
vt 0.159449 0.487592
vn 0.951057 0.000000 -0.309016
vn 0.809017 0.000000 -0.587785
vn 0.809017 0.000000 -0.587785
vn 0.951057 0.000000 -0.309016
vn 0.587785 0.000000 -0.809017
vn 0.587785 0.000000 -0.809017
vn 0.309017 0.000000 -0.951057
vn 0.309017 0.000000 -0.951057
vn -0.000000 0.000000 -1.000000
vn -0.000000 0.000000 -1.000000
vn -0.309017 0.000000 -0.951056
vn -0.309017 0.000000 -0.951056
vn -0.587785 0.000000 -0.809017
vn -0.587785 0.000000 -0.809017
vn -0.809017 0.000000 -0.587785
vn -0.809017 0.000000 -0.587785
vn -0.951057 0.000000 -0.309017
vn -0.951057 0.000000 -0.309017
vn -1.000000 0.000000 0.000000
vn -1.000000 0.000000 0.000000
vn -0.951057 0.000000 0.309017
vn -0.951057 0.000000 0.309017
vn -0.809017 0.000000 0.587785
vn -0.809017 0.000000 0.587785
vn -0.587785 0.000000 0.809017
vn -0.587785 0.000000 0.809017
vn -0.309017 0.000000 0.951057
vn -0.309017 0.000000 0.951057
vn 0.000000 0.000000 1.000000
vn 0.000000 0.000000 1.000000
vn 0.309017 0.000000 0.951056
vn 0.309017 0.000000 0.951056
vn 0.587785 0.000000 0.809017
vn 0.587785 0.000000 0.809017
vn 0.809017 0.000000 0.587785
vn 0.809017 0.000000 0.587785
vn 0.951057 0.000000 0.309017
vn 0.951057 0.000000 0.309017
vn 1.000000 0.000000 0.000001
vn 1.000000 0.000000 0.000001
vn 0.951057 0.000000 -0.309016
vn 0.809017 0.000000 -0.587785
vn 0.809017 0.000000 -0.587785
vn 0.951057 0.000000 -0.309016
vn 0.587785 0.000000 -0.809017
vn 0.587785 0.000000 -0.809017
vn 0.309017 0.000000 -0.951057
vn 0.309017 0.000000 -0.951057
vn 0.000000 0.000000 -1.000000
vn 0.000000 0.000000 -1.000000
vn -0.309017 0.000000 -0.951056
vn -0.309017 0.000000 -0.951056
vn -0.587786 0.000000 -0.809017
vn -0.587786 0.000000 -0.809017
vn -0.809017 0.000000 -0.587785
vn -0.809017 0.000000 -0.587785
vn -0.951057 0.000000 -0.309017
vn -0.951057 0.000000 -0.309017
vn -1.000000 0.000000 0.000000
vn -1.000000 0.000000 0.000000
vn -0.951056 0.000000 0.309017
vn -0.951056 0.000000 0.309017
vn -0.809017 0.000000 0.587785
vn -0.809017 0.000000 0.587785
vn -0.587785 0.000000 0.809017
vn -0.587785 0.000000 0.809017
vn -0.309017 0.000000 0.951057
vn -0.309017 0.000000 0.951057
vn 0.000000 0.000000 1.000000
vn 0.000000 0.000000 1.000000
vn 0.309017 0.000000 0.951057
vn 0.309017 0.000000 0.951057
vn 0.587785 0.000000 0.809017
vn 0.587785 0.000000 0.809017
vn 0.809017 0.000000 0.587785
vn 0.809017 0.000000 0.587785
vn 0.951056 0.000000 0.309017
vn 0.951056 0.000000 0.309017
vn 1.000000 0.000000 0.000001
vn 1.000000 0.000000 0.000001
vn 0.000000 -1.000000 0.000000
vn 0.000000 -1.000000 0.000000
vn 0.000000 -1.000000 0.000000
vn 0.000000 -1.000000 0.000000
vn 0.000000 -1.000000 0.000000
vn 0.000000 -1.000000 0.000000
vn 0.000000 -1.000000 0.000000
vn 0.000000 -1.000000 0.000000
vn 0.000000 -1.000000 0.000000
vn 0.000000 -1.000000 0.000000
vn 0.000000 -1.000000 0.000000
vn 0.000000 -1.000000 0.000000
vn 0.000000 -1.000000 0.000000
vn 0.000000 -1.000000 0.000000
vn 0.000000 -1.000000 0.000000
vn 0.000000 -1.000000 0.000000
vn 0.000000 -1.000000 0.000000
vn 0.000000 -1.000000 0.000000
vn 0.000000 -1.000000 0.000000
vn 0.000000 -1.000000 0.000000
vn 0.000000 -1.000000 0.000000
vn 0.000000 1.000000 -0.000000
vn 0.000000 1.000000 0.000000
vn 0.000000 1.000000 0.000000
vn 0.000000 1.000000 0.000000
vn 0.000000 1.000000 0.000000
vn 0.000000 1.000000 0.000000
vn 0.000000 1.000000 0.000000
vn 0.000000 1.000000 0.000000
vn 0.000000 1.000000 0.000000
vn 0.000000 1.000000 0.000000
vn 0.000000 1.000000 0.000000
vn 0.000000 1.000000 -0.000000
vn 0.000000 1.000000 0.000000
vn 0.000000 1.000000 0.000000
vn 0.000000 1.000000 -0.000000
vn 0.000000 1.000000 -0.000000
vn 0.000000 1.000000 0.000000
vn 0.000000 1.000000 0.000000
vn 0.000000 1.000000 0.000000
vn 0.000000 1.000000 -0.000000
vn 0.000000 1.000000 -0.000000
vn -0.000000 -1.000000 0.000000
vn -0.000000 -1.000000 0.000000
vn -0.000000 -1.000000 0.000000
vn -0.000000 -1.000000 0.000000
vn -0.000000 -1.000000 0.000000
vn -0.000000 -1.000000 0.000000
vn -0.000000 -1.000000 0.000000
vn -0.000000 -1.000000 0.000000
vn 0.000000 -1.000000 0.000000
vn 0.000000 -1.000000 0.000000
vn 0.000000 -1.000000 0.000000
vn 0.000000 -1.000000 0.000000
vn 0.000000 -1.000000 0.000000
vn 0.000000 -1.000000 0.000000
vn 0.000000 -1.000000 0.000000
vn 0.000000 -1.000000 0.000000
vn 0.000000 -1.000000 0.000000
vn 0.000000 -1.000000 0.000000
vn 0.000000 -1.000000 0.000000
vn 0.000000 -1.000000 0.000000
vn -0.000000 -1.000000 0.000000
vn -0.000000 -1.000000 0.000000
vn -0.000000 -1.000000 0.000000
vn -0.000000 -1.000000 0.000000
vn -0.000000 -1.000000 0.000000
vn -0.000000 -1.000000 0.000000
vn -0.000000 -1.000000 0.000000
vn -0.000000 -1.000000 0.000000
vn 0.000000 -1.000000 0.000000
vn 0.000000 -1.000000 0.000000
vn 0.000000 -1.000000 0.000000
vn 0.000000 -1.000000 0.000000
vn 0.000000 -1.000000 0.000000
vn 0.000000 -1.000000 0.000000
vn 0.000000 -1.000000 0.000000
vn 0.000000 -1.000000 0.000000
vn 0.000000 -1.000000 0.000000
vn 0.000000 -1.000000 0.000000
vn 0.000000 -1.000000 0.000000
vn 0.000000 -1.000000 0.000000
f 1/1/1 2/2/2 22/3/3 21/4/4
f 2/2/2 3/5/5 23/6/6 22/3/3
f 3/139/5 4/140/7 24/141/8 23/142/6
f 4/140/7 5/143/9 25/144/10 24/141/8
f 5/143/9 6/145/11 26/146/12 25/144/10
f 6/145/11 7/147/13 27/148/14 26/146/12
f 7/21/13 8/15/15 28/18/16 27/22/14
f 8/15/15 9/16/17 29/17/18 28/18/16
f 9/16/17 10/19/19 30/20/20 29/17/18
f 10/19/19 11/23/21 31/24/22 30/20/20
f 11/23/21 12/25/23 32/26/24 31/24/22
f 12/25/23 13/27/25 33/28/26 32/26/24
f 13/149/25 14/150/27 34/151/28 33/152/26
f 14/150/27 15/153/29 35/154/30 34/151/28
f 15/153/29 16/155/31 36/156/32 35/154/30
f 16/155/31 17/157/33 37/158/34 36/156/32
f 17/13/33 18/11/35 38/12/36 37/14/34
f 18/11/35 19/9/37 39/10/38 38/12/36
f 19/9/37 20/7/39 40/8/40 39/10/38
f 20/7/39 1/1/1 21/4/4 40/8/40
f 43/29/41 44/30/42 45/31/43 46/32/44
f 44/30/42 47/33/45 48/34/46 45/31/43
f 47/159/45 49/160/47 50/161/48 48/162/46
f 49/160/47 51/163/49 52/164/50 50/161/48
f 51/163/49 53/165/51 54/166/52 52/164/50
f 53/165/51 55/167/53 56/168/54 54/166/52
f 55/49/53 57/43/55 58/46/56 56/50/54
f 57/43/55 59/44/57 60/45/58 58/46/56
f 59/44/57 61/47/59 62/48/60 60/45/58
f 61/47/59 63/51/61 64/52/62 62/48/60
f 63/51/61 65/53/63 66/54/64 64/52/62
f 65/53/63 67/55/65 68/56/66 66/54/64
f 67/169/65 69/170/67 70/171/68 68/172/66
f 69/170/67 71/173/69 72/174/70 70/171/68
f 71/173/69 73/175/71 74/176/72 72/174/70
f 73/175/71 75/177/73 76/178/74 74/176/72
f 75/41/73 77/39/75 78/40/76 76/42/74
f 77/39/75 79/37/77 80/38/78 78/40/76
f 79/37/77 81/35/79 82/36/80 80/38/78
f 81/35/79 43/29/41 46/32/44 82/36/80
f 2/57/81 1/58/82 41/59/83
f 3/61/84 2/57/81 41/59/83
f 4/63/85 3/61/84 41/59/83
f 5/65/86 4/63/85 41/59/83
f 6/67/87 5/65/86 41/59/83
f 7/69/88 6/67/87 41/59/83
f 8/71/89 7/69/88 41/59/83
f 9/73/90 8/71/89 41/59/83
f 10/75/91 9/73/90 41/59/83
f 11/77/92 10/75/91 41/59/83
f 12/76/93 11/77/92 41/59/83
f 13/74/94 12/76/93 41/59/83
f 14/72/95 13/74/94 41/59/83
f 15/70/96 14/72/95 41/59/83
f 16/68/97 15/70/96 41/59/83
f 17/66/98 16/68/97 41/59/83
f 18/64/99 17/66/98 41/59/83
f 19/62/100 18/64/99 41/59/83
f 20/60/101 19/62/100 41/59/83
f 1/58/82 20/60/101 41/59/83
f 42/78/102 46/79/103 45/80/104
f 42/78/102 45/80/104 48/82/105
f 42/78/102 48/82/105 50/84/106
f 42/78/102 50/84/106 52/86/107
f 42/78/102 52/86/107 54/88/108
f 42/78/102 54/88/108 56/90/109
f 42/78/102 56/90/109 58/92/110
f 42/78/102 58/92/110 60/94/111
f 42/78/102 60/94/111 62/96/112
f 42/78/102 62/96/112 64/98/113
f 42/78/102 64/98/113 66/97/114
f 42/78/102 66/97/114 68/95/115
f 42/78/102 68/95/115 70/93/116
f 42/78/102 70/93/116 72/91/117
f 42/78/102 72/91/117 74/89/118
f 42/78/102 74/89/118 76/87/119
f 42/78/102 76/87/119 78/85/120
f 42/78/102 78/85/120 80/83/121
f 42/78/102 80/83/121 82/81/122
f 42/78/102 82/81/122 46/79/103
f 21/99/123 22/100/124 44/101/125 43/102/126
f 22/100/124 23/103/127 47/104/128 44/101/125
f 23/103/127 24/107/129 49/108/130 47/104/128
f 24/107/129 25/111/131 51/112/132 49/108/130
f 25/111/131 26/115/133 53/116/134 51/112/132
f 26/115/133 27/119/135 55/120/136 53/116/134
f 27/119/135 28/123/137 57/124/138 55/120/136
f 28/123/137 29/127/139 59/128/140 57/124/138
f 29/127/139 30/131/141 61/132/142 59/128/140
f 30/131/141 31/135/143 63/136/144 61/132/142
f 31/135/143 32/137/145 65/138/146 63/136/144
f 32/137/145 33/133/147 67/134/148 65/138/146
f 33/133/147 34/129/149 69/130/150 67/134/148
f 34/129/149 35/125/151 71/126/152 69/130/150
f 35/125/151 36/121/153 73/122/154 71/126/152
f 36/121/153 37/117/155 75/118/156 73/122/154
f 37/117/155 38/113/157 77/114/158 75/118/156
f 38/113/157 39/109/159 79/110/160 77/114/158
f 39/109/159 40/105/161 81/106/162 79/110/160
f 40/105/161 21/99/123 43/102/126 81/106/162
