# This file uses centimeters as units for non-parametric coordinates.

v -0.500000 -1.000000 0.500000
v 0.500000 -1.000000 0.500000
v -0.500000 -1.000000 -0.500000
v 0.500000 -1.000000 -0.500000
v 0.476666 1.083509 -0.500000
v -0.378498 0.565153 -0.500000
v -0.378498 0.565153 0.500000
v 0.476666 1.083509 0.500000
v -0.653795 0.398283 0.821922
v 0.751963 1.250380 0.821922
v 0.653795 1.412334 0.821922
v -0.751963 0.560237 0.821922
v -0.751963 0.560237 -0.821922
v 0.653795 1.412334 -0.821922
v 0.751963 1.250380 -0.821922
v -0.653795 0.398283 -0.821922
vt 0.275040 0.988438
vt 0.275040 0.722950
vt 0.482805 0.722950
vt 0.482805 0.988438
vt 0.048529 0.442385
vt 0.314017 0.442385
vt 0.314017 0.718959
vt 0.048529 0.718959
vt 0.001992 0.722950
vt 0.267480 0.722950
vt 0.267480 0.988438
vt 0.001992 0.988438
vt 0.506719 0.352927
vt 0.733755 0.352927
vt 0.806843 0.438394
vt 0.433631 0.438394
vt 0.733755 0.087439
vt 0.806843 0.001973
vt 0.506719 0.087439
vt 0.433631 0.001973
vt 0.407569 0.438394
vt 0.407569 0.001973
vt 0.003571 0.437986
vt 0.003571 0.002381
vt 0.373625 0.002381
vt 0.375204 0.001973
vt 0.401266 0.001973
vt 0.401266 0.438394
vt 0.814900 0.375185
vt 0.928011 0.001973
vt 0.949509 0.028035
vt 0.836398 0.401247
vt 0.976510 0.804513
vt 0.863399 0.431301
vt 0.884897 0.405239
vt 0.998008 0.778451
vt 0.624033 0.511194
vt 0.851069 0.442385
vt 0.857264 0.718959
vt 0.591776 0.718959
vt 0.320153 0.442385
vt 0.585640 0.442385
vt 0.579446 0.718959
vt 0.352410 0.650150
vt 0.373625 0.437986
vt 0.375204 0.438394
vn 0.000000 0.000000 1.000000
vn 0.000000 0.000000 1.000000
vn 0.000000 0.000000 1.000000
vn 0.000000 0.000000 1.000000
vn 0.000000 0.000000 -1.000000
vn 0.000000 0.000000 -1.000000
vn 0.000000 0.000000 -1.000000
vn 0.000000 0.000000 -1.000000
vn 0.000000 -1.000000 0.000000
vn 0.000000 -1.000000 0.000000
vn 0.000000 -1.000000 0.000000
vn 0.000000 -1.000000 0.000000
vn 0.855165 0.518356 0.000000
vn 0.855165 0.518356 0.000000
vn 0.855165 0.518356 0.000000
vn 0.855165 0.518356 0.000000
vn -0.855165 -0.518355 0.000000
vn -0.855165 -0.518355 0.000000
vn -0.855165 -0.518355 0.000000
vn -0.855165 -0.518355 0.000000
vn 0.000000 0.000000 -1.000000
vn 0.000000 0.000000 -1.000000
vn 0.000000 0.000000 -1.000000
vn 0.000000 0.000000 -1.000000
vn -0.997000 0.077396 0.000000
vn -0.997000 0.077396 0.000000
vn -0.997000 0.077396 0.000000
vn -0.997000 0.077396 0.000000
vn 0.000000 0.000000 1.000000
vn 0.000000 0.000000 1.000000
vn 0.000000 0.000000 1.000000
vn 0.000000 0.000000 1.000000
vn 0.999937 0.011198 0.000000
vn 0.999937 0.011198 0.000000
vn 0.999937 0.011198 0.000000
vn 0.999937 0.011198 0.000000
vn 0.518356 -0.855165 0.000000
vn 0.518356 -0.855165 0.000000
vn 0.518356 -0.855165 0.000000
vn 0.518356 -0.855165 0.000000
vn -0.518356 0.855165 0.000000
vn -0.518356 0.855165 0.000000
vn -0.518356 0.855165 0.000000
vn -0.518356 0.855165 0.000000
vn 0.518356 -0.855165 -0.000000
vn 0.518356 -0.855165 -0.000000
vn 0.518356 -0.855165 -0.000000
vn 0.518356 -0.855165 -0.000000
f 9/29/1 10/30/2 11/31/3 12/32/4
f 13/33/5 14/34/6 15/35/7 16/36/8
f 3/9/9 4/10/10 2/11/11 1/12/12
f 10/27/13 15/28/14 14/46/15 11/26/16
f 16/20/17 9/16/18 12/21/19 13/22/20
f 6/37/21 5/38/22 4/39/23 3/40/24
f 3/1/25 1/2/26 7/3/27 6/4/28
f 1/41/29 2/42/30 8/43/31 7/44/32
f 2/5/33 4/6/34 5/7/35 8/8/36
f 7/13/37 8/14/38 10/15/39 9/16/40
f 14/23/41 13/24/42 12/25/43 11/45/44
f 5/17/45 6/19/46 16/20/47 15/18/48
f 8/14/38 5/17/45 15/18/48 10/15/39
f 6/19/46 7/13/37 9/16/40 16/20/47
