# This file uses centimeters as units for non-parametric coordinates.

v 1.713217 -0.062816 -0.557533
v 1.456951 -0.061443 -1.060490
v 1.057807 -0.059305 -1.459640
v 0.554856 -0.056610 -1.715909
v -0.002668 -0.053623 -1.804214
v -0.560193 -0.050635 -1.715909
v -1.063143 -0.047941 -1.459640
v -1.462287 -0.045802 -1.060490
v -1.718553 -0.044429 -0.557533
v -1.806856 -0.043956 0.000000
v -1.718553 -0.044429 0.557533
v -1.462287 -0.045802 1.060490
v -1.063143 -0.047941 1.459639
v -0.560193 -0.050635 1.715909
v -0.002669 -0.053623 1.804213
v 0.554856 -0.056610 1.715909
v 1.057806 -0.059305 1.459639
v 1.456950 -0.061443 1.060490
v 1.713215 -0.062816 0.557532
v 1.801519 -0.063290 0.000000
v 1.713732 0.033275 -0.557533
v 1.457465 0.034648 -1.060490
v 1.058322 0.036787 -1.459640
v 0.555371 0.039482 -1.715909
v -0.002154 0.042469 -1.804214
v -0.559678 0.045456 -1.715909
v -1.062628 0.048151 -1.459640
v -1.461772 0.050290 -1.060490
v -1.718038 0.051663 -0.557533
v -1.806341 0.052136 0.000000
v -1.718038 0.051663 0.557533
v -1.461772 0.050290 1.060490
v -1.062628 0.048151 1.459639
v -0.559678 0.045456 1.715909
v -0.002154 0.042469 1.804213
v 0.555371 0.039482 1.715909
v 1.058321 0.036787 1.459639
v 1.457464 0.034648 1.060490
v 1.713731 0.033275 0.557532
v 1.802034 0.032802 0.000000
v -0.002668 -0.053623 0.000000
v -0.002154 0.042469 0.000000
vt 0.162722 0.048641
vt 0.180330 0.048641
vt 0.162722 0.174973
vt 0.180330 0.174973
vt 0.143202 0.174973
vt 0.194304 0.048641
vt 0.143202 0.048641
vt 0.194304 0.174973
vt 0.123683 0.174973
vt 0.123683 0.048641
vt 0.106074 0.174973
vt 0.106074 0.048641
vt 0.092100 0.174973
vt 0.092100 0.048641
vt 0.287150 0.048641
vt 0.304758 0.048641
vt 0.287150 0.174973
vt 0.304758 0.174973
vt 0.273175 0.174973
vt 0.324278 0.048641
vt 0.273175 0.048641
vt 0.324278 0.174973
vt 0.343797 0.048641
vt 0.343797 0.174973
vt 0.361406 0.048641
vt 0.361406 0.174973
vt 0.375380 0.048641
vt 0.375380 0.174973
vt 0.328365 0.202312
vt 0.337337 0.219920
vt 0.277263 0.239440
vt 0.340429 0.239440
vt 0.314391 0.188337
vt 0.337337 0.258959
vt 0.296782 0.179365
vt 0.328365 0.276568
vt 0.277263 0.176274
vt 0.314391 0.290542
vt 0.257744 0.179365
vt 0.296782 0.299514
vt 0.240135 0.188337
vt 0.277263 0.302606
vt 0.226161 0.202312
vt 0.257744 0.299514
vt 0.217189 0.219920
vt 0.240135 0.290542
vt 0.214097 0.239440
vt 0.226161 0.276568
vt 0.217189 0.258959
vt 0.174785 0.306998
vt 0.192394 0.315970
vt 0.155266 0.367072
vt 0.206368 0.329944
vt 0.155266 0.303906
vt 0.215340 0.347553
vt 0.135746 0.306998
vt 0.218432 0.367072
vt 0.118138 0.315970
vt 0.215340 0.386592
vt 0.104164 0.329944
vt 0.206368 0.404200
vt 0.095191 0.347553
vt 0.192394 0.418175
vt 0.092100 0.367072
vt 0.174785 0.427147
vt 0.095191 0.386592
vt 0.155266 0.430238
vt 0.104164 0.404200
vt 0.135746 0.427147
vt 0.118138 0.418175
vt 0.270581 0.174973
vt 0.252972 0.174973
vt 0.270581 0.048641
vt 0.252972 0.048641
vt 0.233453 0.174973
vt 0.233453 0.048641
vt 0.213933 0.174973
vt 0.213933 0.048641
vt 0.196325 0.174973
vt 0.196325 0.048641
vt 0.342428 0.176274
vt 0.360037 0.176274
vt 0.342428 0.302605
vt 0.360037 0.302605
vt 0.379556 0.176274
vt 0.379556 0.302605
vt 0.399076 0.176274
vt 0.399076 0.302605
vt 0.416684 0.176274
vt 0.416684 0.302605
vn 0.951043 -0.005102 -0.309017
vn 0.809005 -0.004334 -0.587785
vn 0.951043 -0.005101 -0.309017
vn 0.809005 -0.004333 -0.587785
vn 0.587777 -0.003147 -0.809017
vn 0.587777 -0.003146 -0.809017
vn 0.309012 -0.001654 -0.951057
vn 0.309012 -0.001654 -0.951057
vn 0.000000 0.000000 -1.000000
vn -0.000000 0.000000 -1.000000
vn -0.309012 0.001654 -0.951057
vn -0.309012 0.001655 -0.951057
vn -0.587778 0.003149 -0.809017
vn -0.587778 0.003150 -0.809017
vn -0.809005 0.004336 -0.587785
vn -0.809006 0.004335 -0.587785
vn -0.951043 0.005095 -0.309017
vn -0.951043 0.005095 -0.309017
vn -0.999986 0.005359 -0.000000
vn -0.999986 0.005359 -0.000000
vn -0.951043 0.005097 0.309017
vn -0.951043 0.005097 0.309017
vn -0.809005 0.004337 0.587786
vn -0.809005 0.004336 0.587786
vn -0.587777 0.003149 0.809017
vn -0.587777 0.003148 0.809017
vn -0.309013 0.001656 0.951056
vn -0.309013 0.001656 0.951057
vn 0.000000 -0.000000 1.000000
vn 0.000000 -0.000000 1.000000
vn 0.309013 -0.001656 0.951057
vn 0.309012 -0.001656 0.951057
vn 0.587777 -0.003150 0.809017
vn 0.587777 -0.003150 0.809017
vn 0.809005 -0.004338 0.587786
vn 0.809005 -0.004337 0.587786
vn 0.951043 -0.005102 0.309018
vn 0.951043 -0.005101 0.309018
vn 0.999986 -0.005360 0.000002
vn 0.999986 -0.005359 0.000001
vn -0.005358 -0.999986 -0.000000
vn -0.005358 -0.999986 0.000000
vn -0.005358 -0.999986 -0.000000
vn -0.005358 -0.999986 -0.000000
vn -0.005358 -0.999986 0.000000
vn -0.005358 -0.999986 0.000000
vn -0.005358 -0.999986 0.000000
vn -0.005358 -0.999986 0.000000
vn -0.005358 -0.999986 0.000000
vn -0.005358 -0.999986 0.000000
vn -0.005358 -0.999986 0.000000
vn -0.005358 -0.999986 0.000000
vn -0.005358 -0.999986 0.000000
vn -0.005358 -0.999986 -0.000000
vn -0.005358 -0.999986 0.000000
vn -0.005358 -0.999986 0.000000
vn -0.005358 -0.999986 0.000000
vn -0.005358 -0.999986 0.000000
vn -0.005358 -0.999986 0.000000
vn -0.005358 -0.999986 -0.000000
vn -0.005358 -0.999986 0.000000
vn 0.005358 0.999986 0.000000
vn 0.005358 0.999986 0.000000
vn 0.005358 0.999986 -0.000000
vn 0.005358 0.999986 0.000000
vn 0.005358 0.999986 0.000000
vn 0.005358 0.999986 0.000000
vn 0.005358 0.999986 0.000000
vn 0.005358 0.999986 -0.000000
vn 0.005358 0.999986 -0.000000
vn 0.005358 0.999986 0.000000
vn 0.005358 0.999986 0.000000
vn 0.005358 0.999986 -0.000000
vn 0.005358 0.999986 -0.000000
vn 0.005358 0.999986 0.000000
vn 0.005358 0.999986 0.000000
vn 0.005358 0.999986 0.000000
vn 0.005358 0.999986 0.000000
vn 0.005358 0.999986 0.000000
vn 0.005358 0.999986 0.000000
vn 0.005358 0.999986 -0.000000
vn 0.005358 0.999986 -0.000000
f 1/1/1 2/2/2 21/3/3
f 21/3/3 2/2/2 22/4/4
f 2/2/2 3/6/5 22/4/4
f 22/4/4 3/6/5 23/8/6
f 3/71/5 4/72/7 23/73/6
f 23/73/6 4/72/7 24/74/8
f 4/72/7 5/75/9 24/74/8
f 24/74/8 5/75/9 25/76/10
f 5/75/9 6/77/11 25/76/10
f 25/76/10 6/77/11 26/78/12
f 6/77/11 7/79/13 26/78/12
f 26/78/12 7/79/13 27/80/14
f 7/21/13 8/15/15 27/19/14
f 27/19/14 8/15/15 28/17/16
f 8/15/15 9/16/17 28/17/16
f 28/17/16 9/16/17 29/18/18
f 9/16/17 10/20/19 29/18/18
f 29/18/18 10/20/19 30/22/20
f 10/20/19 11/23/21 30/22/20
f 30/22/20 11/23/21 31/24/22
f 11/23/21 12/25/23 31/24/22
f 31/24/22 12/25/23 32/26/24
f 12/25/23 13/27/25 32/26/24
f 32/26/24 13/27/25 33/28/26
f 13/81/25 14/82/27 33/83/26
f 33/83/26 14/82/27 34/84/28
f 14/82/27 15/85/29 34/84/28
f 34/84/28 15/85/29 35/86/30
f 15/85/29 16/87/31 35/86/30
f 35/86/30 16/87/31 36/88/32
f 16/87/31 17/89/33 36/88/32
f 36/88/32 17/89/33 37/90/34
f 17/14/33 18/12/35 37/13/34
f 37/13/34 18/12/35 38/11/36
f 18/12/35 19/10/37 38/11/36
f 38/11/36 19/10/37 39/9/38
f 19/10/37 20/7/39 39/9/38
f 39/9/38 20/7/39 40/5/40
f 20/7/39 1/1/1 40/5/40
f 40/5/40 1/1/1 21/3/3
f 2/29/41 1/30/42 41/31/43
f 3/33/44 2/29/41 41/31/43
f 4/35/45 3/33/44 41/31/43
f 5/37/46 4/35/45 41/31/43
f 6/39/47 5/37/46 41/31/43
f 7/41/48 6/39/47 41/31/43
f 8/43/49 7/41/48 41/31/43
f 9/45/50 8/43/49 41/31/43
f 10/47/51 9/45/50 41/31/43
f 11/49/52 10/47/51 41/31/43
f 12/48/53 11/49/52 41/31/43
f 13/46/54 12/48/53 41/31/43
f 14/44/55 13/46/54 41/31/43
f 15/42/56 14/44/55 41/31/43
f 16/40/57 15/42/56 41/31/43
f 17/38/58 16/40/57 41/31/43
f 18/36/59 17/38/58 41/31/43
f 19/34/60 18/36/59 41/31/43
f 20/32/61 19/34/60 41/31/43
f 1/30/42 20/32/61 41/31/43
f 21/50/62 22/51/63 42/52/64
f 22/51/63 23/53/65 42/52/64
f 23/53/65 24/55/66 42/52/64
f 24/55/66 25/57/67 42/52/64
f 25/57/67 26/59/68 42/52/64
f 26/59/68 27/61/69 42/52/64
f 27/61/69 28/63/70 42/52/64
f 28/63/70 29/65/71 42/52/64
f 29/65/71 30/67/72 42/52/64
f 30/67/72 31/69/73 42/52/64
f 31/69/73 32/70/74 42/52/64
f 32/70/74 33/68/75 42/52/64
f 33/68/75 34/66/76 42/52/64
f 34/66/76 35/64/77 42/52/64
f 35/64/77 36/62/78 42/52/64
f 36/62/78 37/60/79 42/52/64
f 37/60/79 38/58/80 42/52/64
f 38/58/80 39/56/81 42/52/64
f 39/56/81 40/54/82 42/52/64
f 40/54/82 21/50/62 42/52/64
