# This file uses centimeters as units for non-parametric coordinates.

v 0.498364 0.494852 -0.163869
v 0.423042 0.494752 -0.311698
v 0.305724 0.494595 -0.429015
v 0.157896 0.494397 -0.504337
v -0.005973 0.494178 -0.530291
v -0.169842 0.493959 -0.504337
v -0.317670 0.493761 -0.429015
v -0.434987 0.493605 -0.311697
v -0.510309 0.493504 -0.163869
v -0.536264 0.493469 0.000000
v -0.510309 0.493504 0.163869
v -0.434987 0.493605 0.311697
v -0.317670 0.493761 0.429015
v -0.169842 0.493959 0.504337
v -0.005973 0.494178 0.530291
v 0.157896 0.494397 0.504337
v 0.305724 0.494595 0.429015
v 0.423041 0.494752 0.311697
v 0.498364 0.494852 0.163869
v 0.524318 0.494887 0.000000
v 0.498236 0.590945 -0.163869
v 0.422913 0.590845 -0.311698
v 0.305596 0.590688 -0.429015
v 0.157767 0.590490 -0.504337
v -0.006101 0.590271 -0.530291
v -0.169970 0.590052 -0.504337
v -0.317798 0.589854 -0.429015
v -0.435116 0.589698 -0.311697
v -0.510438 0.589597 -0.163869
v -0.536392 0.589562 0.000000
v -0.510438 0.589597 0.163869
v -0.435116 0.589698 0.311697
v -0.317798 0.589854 0.429015
v -0.169970 0.590052 0.504337
v -0.006101 0.590271 0.530291
v 0.157767 0.590490 0.504337
v 0.305596 0.590688 0.429015
v 0.422913 0.590845 0.311697
v 0.498235 0.590946 0.163869
v 0.524189 0.590980 0.000000
v -0.005973 0.494178 0.000000
v -0.006101 0.590271 0.000000
v 0.357664 -0.021080 -0.123916
v 0.300711 -0.020297 -0.235702
v 0.212006 -0.019078 -0.324416
v 0.100230 -0.017541 -0.381374
v -0.023674 -0.015839 -0.401000
v -0.147578 -0.014136 -0.381374
v -0.259354 -0.012599 -0.324416
v -0.348059 -0.011380 -0.235702
v -0.405012 -0.010598 -0.123916
v -0.424636 -0.010328 0.000000
v -0.405012 -0.010598 0.123916
v -0.348059 -0.011380 0.235702
v -0.259354 -0.012599 0.324416
v -0.147578 -0.014136 0.381374
v -0.023674 -0.015839 0.401000
v 0.100230 -0.017542 0.381374
v 0.212005 -0.019078 0.324416
v 0.300711 -0.020297 0.235702
v 0.357663 -0.021080 0.123916
v 0.377288 -0.021350 0.000000
v 0.364783 0.496932 -0.123916
v 0.307831 0.497714 -0.235702
v 0.219125 0.498933 -0.324416
v 0.107350 0.500470 -0.381374
v -0.016555 0.502173 -0.401000
v -0.140459 0.503876 -0.381374
v -0.252234 0.505412 -0.324416
v -0.340940 0.506631 -0.235702
v -0.397892 0.507414 -0.123916
v -0.417517 0.507684 0.000000
v -0.397892 0.507414 0.123916
v -0.340940 0.506631 0.235702
v -0.252234 0.505412 0.324416
v -0.140459 0.503876 0.381374
v -0.016555 0.502173 0.401000
v 0.107350 0.500470 0.381374
v 0.219125 0.498934 0.324416
v 0.307831 0.497714 0.235702
v 0.364783 0.496931 0.123916
v 0.384408 0.496662 0.000000
v -0.023674 -0.015839 0.000000
v -0.016555 0.502173 0.000000
vt 0.688323 0.536379
vt 0.706686 0.536379
vt 0.688323 0.668118
vt 0.706686 0.668118
vt 0.667968 0.668118
vt 0.721258 0.536379
vt 0.667968 0.536379
vt 0.721258 0.668118
vt 0.647613 0.668118
vt 0.647613 0.536379
vt 0.629251 0.668118
vt 0.629251 0.536379
vt 0.614678 0.668118
vt 0.614678 0.536379
vt 0.818078 0.536379
vt 0.836441 0.536379
vt 0.818078 0.668118
vt 0.836441 0.668118
vt 0.803505 0.668118
vt 0.856795 0.536379
vt 0.803505 0.536379
vt 0.856795 0.668118
vt 0.877150 0.536379
vt 0.877150 0.668118
vt 0.895513 0.536379
vt 0.895513 0.668118
vt 0.910085 0.536379
vt 0.910085 0.668118
vt 0.861058 0.696628
vt 0.870414 0.714990
vt 0.807768 0.735345
vt 0.873638 0.735345
vt 0.846485 0.682055
vt 0.870414 0.755700
vt 0.828123 0.672699
vt 0.861058 0.774062
vt 0.807768 0.669475
vt 0.846485 0.788635
vt 0.787413 0.672699
vt 0.828123 0.797991
vt 0.769051 0.682055
vt 0.807768 0.801215
vt 0.754478 0.696627
vt 0.787413 0.797991
vt 0.745122 0.714990
vt 0.769051 0.788635
vt 0.741898 0.735345
vt 0.754478 0.774062
vt 0.745122 0.755700
vt 0.743194 0.888796
vt 0.733838 0.907159
vt 0.680548 0.868441
vt 0.719266 0.921731
vt 0.746418 0.868441
vt 0.700903 0.931087
vt 0.743194 0.848086
vt 0.680548 0.934311
vt 0.733838 0.829724
vt 0.660193 0.931087
vt 0.719266 0.815151
vt 0.641831 0.921731
vt 0.700903 0.805795
vt 0.627258 0.907159
vt 0.680548 0.802571
vt 0.617902 0.888796
vt 0.660193 0.805795
vt 0.614678 0.868441
vt 0.641831 0.815151
vt 0.617902 0.848086
vt 0.627258 0.829724
vt 0.800800 0.668119
vt 0.782437 0.668119
vt 0.800800 0.536379
vt 0.782437 0.536379
vt 0.762082 0.668119
vt 0.762082 0.536379
vt 0.741727 0.668119
vt 0.741727 0.536379
vt 0.723365 0.668119
vt 0.723365 0.536379
vt 0.875723 0.669475
vt 0.894085 0.669475
vt 0.875723 0.801215
vt 0.894085 0.801215
vt 0.914440 0.669475
vt 0.914440 0.801215
vt 0.934795 0.669475
vt 0.934795 0.801215
vt 0.953158 0.669475
vt 0.953158 0.801215
vt 0.688323 0.536379
vt 0.706686 0.536379
vt 0.688323 0.668118
vt 0.706686 0.668118
vt 0.721258 0.536379
vt 0.721258 0.668118
vt 0.800800 0.668119
vt 0.782437 0.668119
vt 0.800800 0.536379
vt 0.782437 0.536379
vt 0.762082 0.668119
vt 0.762082 0.536379
vt 0.741727 0.668119
vt 0.741727 0.536379
vt 0.723365 0.668119
vt 0.723365 0.536379
vt 0.803505 0.536379
vt 0.818078 0.536379
vt 0.803505 0.668118
vt 0.818078 0.668118
vt 0.836441 0.536379
vt 0.836441 0.668118
vt 0.856795 0.536379
vt 0.856795 0.668118
vt 0.877150 0.536379
vt 0.877150 0.668118
vt 0.895513 0.536379
vt 0.895513 0.668118
vt 0.910085 0.536379
vt 0.910085 0.668118
vt 0.875723 0.669475
vt 0.894085 0.669475
vt 0.875723 0.801215
vt 0.894085 0.801215
vt 0.914440 0.669475
vt 0.914440 0.801215
vt 0.934795 0.669475
vt 0.934795 0.801215
vt 0.953158 0.669475
vt 0.953158 0.801215
vt 0.614678 0.536379
vt 0.629251 0.536379
vt 0.614678 0.668118
vt 0.629251 0.668118
vt 0.647613 0.536379
vt 0.647613 0.668118
vt 0.667968 0.536379
vt 0.667968 0.668118
vt 0.861058 0.696628
vt 0.870414 0.714990
vt 0.807768 0.735345
vt 0.846485 0.682055
vt 0.828123 0.672699
vt 0.807768 0.669475
vt 0.787413 0.672699
vt 0.769051 0.682055
vt 0.754478 0.696627
vt 0.745122 0.714990
vt 0.741898 0.735345
vt 0.745122 0.755700
vt 0.754478 0.774062
vt 0.769051 0.788635
vt 0.787413 0.797991
vt 0.807768 0.801215
vt 0.828123 0.797991
vt 0.846485 0.788635
vt 0.861058 0.774062
vt 0.870414 0.755700
vt 0.873638 0.735345
vt 0.743194 0.888796
vt 0.733838 0.907159
vt 0.680548 0.868441
vt 0.719266 0.921731
vt 0.700903 0.931087
vt 0.680548 0.934311
vt 0.660193 0.931087
vt 0.641831 0.921731
vt 0.627258 0.907159
vt 0.617902 0.888796
vt 0.614678 0.868441
vt 0.617902 0.848086
vt 0.627258 0.829724
vt 0.641831 0.815151
vt 0.660193 0.805795
vt 0.680548 0.802571
vt 0.700903 0.805795
vt 0.719266 0.815151
vt 0.733838 0.829724
vt 0.743194 0.848086
vt 0.746418 0.868441
vn 0.951056 0.001271 -0.309016
vn 0.809016 0.001081 -0.587786
vn 0.951056 0.001270 -0.309016
vn 0.809016 0.001081 -0.587785
vn 0.587785 0.000785 -0.809017
vn 0.587785 0.000785 -0.809017
vn 0.309017 0.000413 -0.951057
vn 0.309016 0.000414 -0.951057
vn -0.000000 0.000000 -1.000000
vn -0.000001 0.000000 -1.000000
vn -0.309017 -0.000414 -0.951057
vn -0.309017 -0.000413 -0.951056
vn -0.587785 -0.000786 -0.809017
vn -0.587785 -0.000785 -0.809017
vn -0.809016 -0.001081 -0.587785
vn -0.809016 -0.001081 -0.587785
vn -0.951056 -0.001272 -0.309017
vn -0.951056 -0.001272 -0.309017
vn -0.999999 -0.001338 -0.000000
vn -0.999999 -0.001337 -0.000000
vn -0.951056 -0.001271 0.309017
vn -0.951056 -0.001271 0.309017
vn -0.809016 -0.001081 0.587785
vn -0.809016 -0.001081 0.587785
vn -0.587785 -0.000785 0.809017
vn -0.587784 -0.000785 0.809017
vn -0.309016 -0.000413 0.951057
vn -0.309017 -0.000414 0.951057
vn 0.000000 -0.000000 1.000000
vn -0.000000 0.000000 1.000000
vn 0.309017 0.000413 0.951057
vn 0.309017 0.000413 0.951056
vn 0.587784 0.000785 0.809017
vn 0.587785 0.000785 0.809017
vn 0.809016 0.001081 0.587786
vn 0.809016 0.001081 0.587785
vn 0.951056 0.001270 0.309017
vn 0.951056 0.001271 0.309017
vn 0.999999 0.001338 0.000000
vn 0.999999 0.001338 0.000000
vn 0.001337 -0.999999 -0.000000
vn 0.001337 -0.999999 -0.000000
vn 0.001337 -0.999999 0.000000
vn 0.001337 -0.999999 0.000000
vn 0.001337 -0.999999 0.000000
vn 0.001337 -0.999999 0.000000
vn 0.001337 -0.999999 0.000000
vn 0.001336 -0.999999 0.000000
vn 0.001337 -0.999999 -0.000000
vn 0.001337 -0.999999 -0.000000
vn 0.001337 -0.999999 0.000000
vn 0.001337 -0.999999 0.000000
vn 0.001337 -0.999999 0.000000
vn 0.001337 -0.999999 -0.000000
vn 0.001337 -0.999999 -0.000000
vn 0.001337 -0.999999 0.000000
vn 0.001337 -0.999999 0.000000
vn 0.001337 -0.999999 0.000000
vn 0.001337 -0.999999 0.000000
vn 0.001337 -0.999999 0.000000
vn 0.001337 -0.999999 0.000000
vn -0.001337 0.999999 0.000000
vn -0.001337 0.999999 0.000000
vn -0.001337 0.999999 -0.000000
vn -0.001337 0.999999 -0.000001
vn -0.001337 0.999999 -0.000000
vn -0.001336 0.999999 0.000000
vn -0.001337 0.999999 0.000000
vn -0.001337 0.999999 0.000000
vn -0.001337 0.999999 -0.000000
vn -0.001337 0.999999 0.000000
vn -0.001337 0.999999 0.000000
vn -0.001337 0.999999 -0.000000
vn -0.001337 0.999999 0.000000
vn -0.001337 0.999999 -0.000000
vn -0.001337 0.999999 -0.000000
vn -0.001336 0.999999 0.000000
vn -0.001337 0.999999 0.000000
vn -0.001338 0.999999 0.000000
vn -0.001337 0.999999 -0.000000
vn -0.001337 0.999999 0.000000
vn -0.001337 0.999999 0.000000
vn 0.950967 -0.013070 -0.309016
vn 0.808941 -0.011118 -0.587785
vn 0.950967 -0.013070 -0.309016
vn 0.808941 -0.011118 -0.587785
vn 0.587730 -0.008078 -0.809017
vn 0.587730 -0.008078 -0.809017
vn 0.308988 -0.004247 -0.951057
vn 0.308987 -0.004247 -0.951057
vn -0.000000 -0.000000 -1.000000
vn -0.000000 0.000000 -1.000000
vn -0.308988 0.004247 -0.951057
vn -0.308988 0.004247 -0.951057
vn -0.587730 0.008078 -0.809017
vn -0.587730 0.008078 -0.809017
vn -0.808941 0.011118 -0.587785
vn -0.808941 0.011118 -0.587785
vn -0.950967 0.013070 -0.309016
vn -0.950967 0.013070 -0.309017
vn -0.999906 0.013743 0.000000
vn -0.999906 0.013743 0.000000
vn -0.950967 0.013070 0.309016
vn -0.950967 0.013070 0.309017
vn -0.808941 0.011118 0.587785
vn -0.808941 0.011118 0.587785
vn -0.587729 0.008078 0.809017
vn -0.587729 0.008078 0.809017
vn -0.308988 0.004247 0.951057
vn -0.308988 0.004247 0.951057
vn -0.000000 0.000000 1.000000
vn 0.000000 -0.000000 1.000000
vn 0.308988 -0.004247 0.951056
vn 0.308988 -0.004247 0.951056
vn 0.587729 -0.008078 0.809017
vn 0.587730 -0.008078 0.809017
vn 0.808941 -0.011118 0.587785
vn 0.808941 -0.011118 0.587785
vn 0.950967 -0.013070 0.309016
vn 0.950967 -0.013070 0.309017
vn 0.999906 -0.013743 0.000001
vn 0.999906 -0.013743 0.000001
vn -0.013742 -0.999906 0.000000
vn -0.013743 -0.999906 -0.000001
vn -0.013743 -0.999906 -0.000000
vn -0.013743 -0.999906 0.000000
vn -0.013743 -0.999906 -0.000000
vn -0.013742 -0.999906 0.000000
vn -0.013743 -0.999906 0.000000
vn -0.013743 -0.999906 0.000000
vn -0.013742 -0.999906 -0.000000
vn -0.013743 -0.999906 0.000001
vn -0.013743 -0.999906 0.000000
vn -0.013743 -0.999906 -0.000001
vn -0.013742 -0.999906 0.000000
vn -0.013743 -0.999906 -0.000000
vn -0.013743 -0.999906 -0.000000
vn -0.013743 -0.999906 0.000000
vn -0.013743 -0.999906 -0.000000
vn -0.013742 -0.999906 -0.000000
vn -0.013742 -0.999906 -0.000000
vn -0.013743 -0.999906 0.000001
vn -0.013743 -0.999906 0.000000
vn 0.013743 0.999906 0.000001
vn 0.013742 0.999906 -0.000000
vn 0.013743 0.999906 -0.000000
vn 0.013743 0.999906 -0.000000
vn 0.013743 0.999906 0.000000
vn 0.013742 0.999906 0.000000
vn 0.013743 0.999906 -0.000000
vn 0.013743 0.999906 0.000000
vn 0.013742 0.999906 0.000000
vn 0.013743 0.999906 -0.000001
vn 0.013743 0.999906 0.000000
vn 0.013743 0.999906 0.000001
vn 0.013742 0.999906 -0.000000
vn 0.013742 0.999906 -0.000000
vn 0.013743 0.999906 -0.000000
vn 0.013743 0.999906 0.000000
vn 0.013743 0.999906 0.000000
vn 0.013742 0.999906 0.000001
vn 0.013743 0.999906 -0.000000
vn 0.013743 0.999906 -0.000001
vn 0.013743 0.999906 0.000000
f 1/1/1 2/2/2 21/3/3
f 21/3/3 2/2/2 22/4/4
f 2/2/2 3/6/5 22/4/4
f 22/4/4 3/6/5 23/8/6
f 3/71/5 4/72/7 23/73/6
f 23/73/6 4/72/7 24/74/8
f 4/72/7 5/75/9 24/74/8
f 24/74/8 5/75/9 25/76/10
f 5/75/9 6/77/11 25/76/10
f 25/76/10 6/77/11 26/78/12
f 6/77/11 7/79/13 26/78/12
f 26/78/12 7/79/13 27/80/14
f 7/21/13 8/15/15 27/19/14
f 27/19/14 8/15/15 28/17/16
f 8/15/15 9/16/17 28/17/16
f 28/17/16 9/16/17 29/18/18
f 9/16/17 10/20/19 29/18/18
f 29/18/18 10/20/19 30/22/20
f 10/20/19 11/23/21 30/22/20
f 30/22/20 11/23/21 31/24/22
f 11/23/21 12/25/23 31/24/22
f 31/24/22 12/25/23 32/26/24
f 12/25/23 13/27/25 32/26/24
f 32/26/24 13/27/25 33/28/26
f 13/81/25 14/82/27 33/83/26
f 33/83/26 14/82/27 34/84/28
f 14/82/27 15/85/29 34/84/28
f 34/84/28 15/85/29 35/86/30
f 15/85/29 16/87/31 35/86/30
f 35/86/30 16/87/31 36/88/32
f 16/87/31 17/89/33 36/88/32
f 36/88/32 17/89/33 37/90/34
f 17/14/33 18/12/35 37/13/34
f 37/13/34 18/12/35 38/11/36
f 18/12/35 19/10/37 38/11/36
f 38/11/36 19/10/37 39/9/38
f 19/10/37 20/7/39 39/9/38
f 39/9/38 20/7/39 40/5/40
f 20/7/39 1/1/1 40/5/40
f 40/5/40 1/1/1 21/3/3
f 2/29/41 1/30/42 41/31/43
f 3/33/44 2/29/41 41/31/43
f 4/35/45 3/33/44 41/31/43
f 5/37/46 4/35/45 41/31/43
f 6/39/47 5/37/46 41/31/43
f 7/41/48 6/39/47 41/31/43
f 8/43/49 7/41/48 41/31/43
f 9/45/50 8/43/49 41/31/43
f 10/47/51 9/45/50 41/31/43
f 11/49/52 10/47/51 41/31/43
f 12/48/53 11/49/52 41/31/43
f 13/46/54 12/48/53 41/31/43
f 14/44/55 13/46/54 41/31/43
f 15/42/56 14/44/55 41/31/43
f 16/40/57 15/42/56 41/31/43
f 17/38/58 16/40/57 41/31/43
f 18/36/59 17/38/58 41/31/43
f 19/34/60 18/36/59 41/31/43
f 20/32/61 19/34/60 41/31/43
f 1/30/42 20/32/61 41/31/43
f 21/50/62 22/51/63 42/52/64
f 22/51/63 23/53/65 42/52/64
f 23/53/65 24/55/66 42/52/64
f 24/55/66 25/57/67 42/52/64
f 25/57/67 26/59/68 42/52/64
f 26/59/68 27/61/69 42/52/64
f 27/61/69 28/63/70 42/52/64
f 28/63/70 29/65/71 42/52/64
f 29/65/71 30/67/72 42/52/64
f 30/67/72 31/69/73 42/52/64
f 31/69/73 32/70/74 42/52/64
f 32/70/74 33/68/75 42/52/64
f 33/68/75 34/66/76 42/52/64
f 34/66/76 35/64/77 42/52/64
f 35/64/77 36/62/78 42/52/64
f 36/62/78 37/60/79 42/52/64
f 37/60/79 38/58/80 42/52/64
f 38/58/80 39/56/81 42/52/64
f 39/56/81 40/54/82 42/52/64
f 40/54/82 21/50/62 42/52/64
f 43/91/83 44/92/84 63/93/85
f 63/93/85 44/92/84 64/94/86
f 44/92/84 45/95/87 64/94/86
f 64/94/86 45/95/87 65/96/88
f 45/97/87 46/98/89 65/99/88
f 65/99/88 46/98/89 66/100/90
f 46/98/89 47/101/91 66/100/90
f 66/100/90 47/101/91 67/102/92
f 47/101/91 48/103/93 67/102/92
f 67/102/92 48/103/93 68/104/94
f 48/103/93 49/105/95 68/104/94
f 68/104/94 49/105/95 69/106/96
f 49/107/95 50/108/97 69/109/96
f 69/109/96 50/108/97 70/110/98
f 50/108/97 51/111/99 70/110/98
f 70/110/98 51/111/99 71/112/100
f 51/111/99 52/113/101 71/112/100
f 71/112/100 52/113/101 72/114/102
f 52/113/101 53/115/103 72/114/102
f 72/114/102 53/115/103 73/116/104
f 53/115/103 54/117/105 73/116/104
f 73/116/104 54/117/105 74/118/106
f 54/117/105 55/119/107 74/118/106
f 74/118/106 55/119/107 75/120/108
f 55/121/107 56/122/109 75/123/108
f 75/123/108 56/122/109 76/124/110
f 56/122/109 57/125/111 76/124/110
f 76/124/110 57/125/111 77/126/112
f 57/125/111 58/127/113 77/126/112
f 77/126/112 58/127/113 78/128/114
f 58/127/113 59/129/115 78/128/114
f 78/128/114 59/129/115 79/130/116
f 59/131/115 60/132/117 79/133/116
f 79/133/116 60/132/117 80/134/118
f 60/132/117 61/135/119 80/134/118
f 80/134/118 61/135/119 81/136/120
f 61/135/119 62/137/121 81/136/120
f 81/136/120 62/137/121 82/138/122
f 62/137/121 43/91/83 82/138/122
f 82/138/122 43/91/83 63/93/85
f 44/139/123 43/140/124 83/141/125
f 45/142/126 44/139/123 83/141/125
f 46/143/127 45/142/126 83/141/125
f 47/144/128 46/143/127 83/141/125
f 48/145/129 47/144/128 83/141/125
f 49/146/130 48/145/129 83/141/125
f 50/147/131 49/146/130 83/141/125
f 51/148/132 50/147/131 83/141/125
f 52/149/133 51/148/132 83/141/125
f 53/150/134 52/149/133 83/141/125
f 54/151/135 53/150/134 83/141/125
f 55/152/136 54/151/135 83/141/125
f 56/153/137 55/152/136 83/141/125
f 57/154/138 56/153/137 83/141/125
f 58/155/139 57/154/138 83/141/125
f 59/156/140 58/155/139 83/141/125
f 60/157/141 59/156/140 83/141/125
f 61/158/142 60/157/141 83/141/125
f 62/159/143 61/158/142 83/141/125
f 43/140/124 62/159/143 83/141/125
f 63/160/144 64/161/145 84/162/146
f 64/161/145 65/163/147 84/162/146
f 65/163/147 66/164/148 84/162/146
f 66/164/148 67/165/149 84/162/146
f 67/165/149 68/166/150 84/162/146
f 68/166/150 69/167/151 84/162/146
f 69/167/151 70/168/152 84/162/146
f 70/168/152 71/169/153 84/162/146
f 71/169/153 72/170/154 84/162/146
f 72/170/154 73/171/155 84/162/146
f 73/171/155 74/172/156 84/162/146
f 74/172/156 75/173/157 84/162/146
f 75/173/157 76/174/158 84/162/146
f 76/174/158 77/175/159 84/162/146
f 77/175/159 78/176/160 84/162/146
f 78/176/160 79/177/161 84/162/146
f 79/177/161 80/178/162 84/162/146
f 80/178/162 81/179/163 84/162/146
f 81/179/163 82/180/164 84/162/146
f 82/180/164 63/160/144 84/162/146
