# This file uses centimeters as units for non-parametric coordinates.

v -0.555076 0.013872 0.353777
v -0.908783 0.543799 0.707484
v 0.908783 0.543799 0.707484
v 0.555076 0.013872 0.353777
v -1.361546 3.772370 1.059958
v -0.831619 4.302296 0.530032
v 0.831619 4.302296 0.530032
v 1.361546 3.772370 1.059958
v -0.831619 4.302296 -0.530032
v -1.361546 3.772370 -1.059958
v 0.831619 4.302296 -0.530032
v 1.361546 3.772370 -1.059958
v -0.908783 0.543799 -0.707484
v -0.555076 0.013872 -0.353777
v 0.555076 0.013872 -0.353777
v 0.908783 0.543799 -0.707484
vt 0.375284 0.492251
vt 0.403348 0.492251
vt 0.368293 0.536101
vt 0.382299 0.485053
vt 0.410339 0.536101
vt 0.396333 0.485053
vt 0.399828 0.543298
vt 0.378804 0.543298
vt 0.332432 0.492251
vt 0.360496 0.492251
vt 0.325441 0.536101
vt 0.339447 0.485053
vt 0.367487 0.536101
vt 0.353481 0.485053
vt 0.356977 0.543298
vt 0.335952 0.543298
vt 0.333624 0.598650
vt 0.359305 0.598650
vt 0.333624 0.619675
vt 0.325441 0.588140
vt 0.359305 0.619675
vt 0.367487 0.588140
vt 0.367487 0.630185
vt 0.325441 0.630185
vt 0.373755 0.595155
vt 0.390896 0.595155
vt 0.373755 0.609188
vt 0.368293 0.588140
vt 0.390896 0.609188
vt 0.396357 0.588140
vt 0.396357 0.616204
vt 0.368293 0.616204
vt 0.414043 0.543794
vt 0.442107 0.543794
vt 0.407052 0.587644
vt 0.449098 0.587644
vt 0.364245 0.543794
vt 0.406291 0.543794
vt 0.371236 0.587644
vt 0.399300 0.587644
vn -0.831744 -0.555159 0.000000
vn -0.831744 -0.555159 0.000000
vn -0.831744 -0.555159 0.000000
vn -0.831744 -0.555159 0.000000
vn 0.000000 -0.555159 0.831744
vn 0.000000 -0.555159 0.831744
vn 0.000000 -0.555159 0.831744
vn 0.000000 -0.555159 0.831744
vn 0.831744 -0.555159 0.000000
vn 0.831744 -0.555159 0.000000
vn 0.831744 -0.555159 0.000000
vn 0.831744 -0.555159 0.000000
vn -0.707107 0.707107 0.000000
vn -0.707107 0.707107 0.000000
vn -0.707107 0.707107 0.000000
vn -0.707107 0.707107 0.000000
vn 0.000000 0.707108 0.707106
vn 0.000000 0.707107 0.707106
vn 0.000000 0.707107 0.707107
vn 0.000000 0.707106 0.707107
vn 0.707107 0.707107 0.000000
vn 0.707107 0.707107 0.000000
vn 0.707107 0.707107 0.000000
vn 0.707107 0.707107 0.000000
vn 0.000000 0.707106 -0.707107
vn 0.000000 0.707107 -0.707107
vn 0.000000 0.707107 -0.707106
vn 0.000000 0.707108 -0.707106
vn 0.000000 -0.555158 -0.831745
vn 0.000000 -0.555159 -0.831744
vn 0.000000 -0.555159 -0.831744
vn 0.000000 -0.555159 -0.831744
vn 0.000000 -0.108529 0.994093
vn 0.000000 -0.108529 0.994093
vn 0.000000 -0.108529 0.994093
vn 0.000000 -0.108529 0.994093
vn 0.000000 1.000000 0.000000
vn 0.000000 1.000000 0.000000
vn 0.000000 1.000000 0.000000
vn 0.000000 1.000000 0.000000
vn 0.000000 -0.108529 -0.994093
vn 0.000000 -0.108529 -0.994093
vn 0.000000 -0.108529 -0.994093
vn 0.000000 -0.108529 -0.994093
vn 0.000000 -1.000000 0.000000
vn 0.000000 -1.000000 0.000000
vn 0.000000 -1.000000 0.000000
vn 0.000000 -1.000000 0.000000
vn 0.990310 -0.138877 0.000000
vn 0.990310 -0.138877 0.000000
vn 0.990310 -0.138877 0.000000
vn 0.990310 -0.138877 0.000000
vn -0.990310 -0.138877 0.000000
vn -0.990310 -0.138877 0.000000
vn -0.990310 -0.138877 0.000000
vn -0.990310 -0.138877 0.000000
f 1/14/1 2/10/2 14/12/3
f 14/12/3 2/10/2 13/9/4
f 2/32/5 1/27/6 3/31/7
f 3/31/7 1/27/6 4/29/8
f 3/1/9 4/4/10 16/2/11
f 16/2/11 4/4/10 15/6/12
f 5/13/13 6/15/14 10/11/15
f 10/11/15 6/15/14 9/16/16
f 6/17/17 5/20/18 7/18/19
f 7/18/19 5/20/18 8/22/20
f 7/8/21 8/3/22 11/7/23
f 11/7/23 8/3/22 12/5/24
f 10/24/25 9/19/26 12/23/27
f 12/23/27 9/19/26 11/21/28
f 14/25/29 13/28/30 15/26/31
f 15/26/31 13/28/30 16/30/32
f 2/33/33 3/34/34 5/35/35
f 5/35/35 3/34/34 8/36/36
f 6/17/37 7/18/38 9/19/39
f 9/19/39 7/18/38 11/21/40
f 10/37/41 12/38/42 13/39/43
f 13/39/43 12/38/42 16/40/44
f 14/25/45 15/26/46 1/27/47
f 1/27/47 15/26/46 4/29/48
f 3/1/49 16/2/50 8/3/51
f 8/3/51 16/2/50 12/5/52
f 13/9/53 2/10/54 10/11/55
f 10/11/55 2/10/54 5/13/56
