# This file uses centimeters as units for non-parametric coordinates.

v 1.018066 2.033902 -0.330790
v 0.866019 2.033902 -0.629200
v 0.629198 2.033902 -0.866021
v 0.330788 2.033902 -1.018069
v -0.000002 2.033902 -1.070461
v -0.330795 2.033902 -1.018069
v -0.629205 2.033902 -0.866021
v -0.866027 2.033902 -0.629200
v -1.018075 2.033902 -0.330790
v -1.070466 2.033902 0.000001
v -1.018075 2.033902 0.330792
v -0.866027 2.033902 0.629203
v -0.629205 2.033902 0.866024
v -0.330794 2.033902 1.018071
v -0.000002 2.033902 1.070463
v 0.330788 2.033902 1.018072
v 0.629198 2.033902 0.866024
v 0.866018 2.033902 0.629203
v 1.018065 2.033902 0.330792
v 1.070457 2.033902 0.000001
v 1.249745 6.542774 -0.406067
v 1.063096 6.542774 -0.772385
v 0.772383 6.542774 -1.063098
v 0.406065 6.542774 -1.249746
v -0.000002 6.542774 -1.314061
v -0.406070 6.542774 -1.249746
v -0.772388 6.542774 -1.063097
v -1.063100 6.542774 -0.772385
v -1.249748 6.542774 -0.406067
v -1.314063 6.542774 0.000000
v -1.249748 6.542774 0.406068
v -1.063100 6.542774 0.772386
v -0.772388 6.542774 1.063098
v -0.406070 6.542774 1.249746
v -0.000002 6.542774 1.314060
v 0.406064 6.542774 1.249746
v 0.772382 6.542774 1.063097
v 1.063095 6.542774 0.772386
v 1.249744 6.542774 0.406068
v 1.314058 6.542774 0.000000
v -0.000002 2.033902 0.000001
v -0.000002 6.542774 0.000000
vt 0.385783 0.653966
vt 0.395802 0.653966
vt 0.400610 0.784044
vt 0.388310 0.784044
vt 0.403754 0.653966
vt 0.410371 0.784044
vt 0.374676 0.653966
vt 0.374676 0.784044
vt 0.363569 0.653966
vt 0.361041 0.784044
vt 0.353549 0.653966
vt 0.348742 0.784044
vt 0.345598 0.653966
vt 0.338980 0.784044
vt 0.480161 0.653966
vt 0.490181 0.653966
vt 0.487653 0.784044
vt 0.475353 0.784044
vt 0.501287 0.653966
vt 0.501287 0.784044
vt 0.472209 0.653966
vt 0.465592 0.784044
vt 0.512394 0.653966
vt 0.514922 0.784044
vt 0.522414 0.653966
vt 0.527222 0.784044
vt 0.530366 0.653966
vt 0.536983 0.784044
vt 0.437710 0.799857
vt 0.442816 0.809876
vt 0.408632 0.820983
vt 0.444575 0.820983
vt 0.429759 0.791905
vt 0.442816 0.832090
vt 0.419739 0.786800
vt 0.437710 0.842110
vt 0.408632 0.785041
vt 0.429759 0.850062
vt 0.397525 0.786800
vt 0.419739 0.855167
vt 0.387506 0.791905
vt 0.408632 0.856926
vt 0.379554 0.799857
vt 0.397525 0.855167
vt 0.374449 0.809876
vt 0.387506 0.850062
vt 0.372690 0.820983
vt 0.379554 0.842110
vt 0.374449 0.832090
vt 0.532191 0.842797
vt 0.525924 0.855097
vt 0.490229 0.829163
vt 0.516163 0.864858
vt 0.534350 0.829163
vt 0.503863 0.871125
vt 0.532191 0.815528
vt 0.490229 0.873284
vt 0.525924 0.803228
vt 0.476594 0.871125
vt 0.516163 0.793467
vt 0.464295 0.864858
vt 0.503863 0.787200
vt 0.454534 0.855097
vt 0.490229 0.785041
vt 0.448267 0.842797
vt 0.476594 0.787200
vt 0.446107 0.829163
vt 0.464295 0.793467
vt 0.448267 0.815528
vt 0.454534 0.803228
vt 0.459107 0.784044
vt 0.449087 0.784044
vt 0.451615 0.653966
vt 0.463914 0.653966
vt 0.437981 0.784044
vt 0.437981 0.653966
vt 0.426874 0.784044
vt 0.424346 0.653966
vt 0.416854 0.784044
vt 0.412046 0.653966
vt 0.540690 0.785041
vt 0.550710 0.785041
vt 0.548182 0.915119
vt 0.535883 0.915119
vt 0.561817 0.785041
vt 0.561817 0.915119
vt 0.572924 0.785041
vt 0.575451 0.915119
vt 0.582943 0.785041
vt 0.587751 0.915119
vn 0.949990 -0.053948 -0.307586
vn 0.808443 -0.053948 -0.586097
vn 0.949887 -0.053948 -0.307902
vn 0.808248 -0.053948 -0.586366
vn 0.587762 -0.053948 -0.807233
vn 0.587493 -0.053948 -0.807429
vn 0.309545 -0.053948 -0.949353
vn 0.309230 -0.053948 -0.949456
vn 0.001029 -0.053948 -0.998543
vn 0.000697 -0.053948 -0.998544
vn -0.307588 -0.053948 -0.949989
vn -0.307904 -0.053948 -0.949887
vn -0.586096 -0.053948 -0.808443
vn -0.586366 -0.053948 -0.808248
vn -0.807233 -0.053948 -0.587763
vn -0.807429 -0.053948 -0.587493
vn -0.949354 -0.053947 -0.309544
vn -0.949456 -0.053947 -0.309229
vn -0.998543 -0.053947 -0.001029
vn -0.998544 -0.053947 -0.000697
vn -0.949989 -0.053947 0.307587
vn -0.949887 -0.053947 0.307903
vn -0.808443 -0.053947 0.586098
vn -0.808248 -0.053947 0.586365
vn -0.587760 -0.053947 0.807235
vn -0.587493 -0.053948 0.807429
vn -0.309544 -0.053947 0.949354
vn -0.309229 -0.053948 0.949456
vn -0.001030 -0.053948 0.998543
vn -0.000696 -0.053947 0.998544
vn 0.307588 -0.053947 0.949989
vn 0.307904 -0.053947 0.949887
vn 0.586098 -0.053948 0.808442
vn 0.586364 -0.053948 0.808249
vn 0.807234 -0.053948 0.587760
vn 0.807428 -0.053948 0.587494
vn 0.949354 -0.053948 0.309544
vn 0.949456 -0.053948 0.309229
vn 0.998543 -0.053948 0.001030
vn 0.998544 -0.053948 0.000698
vn 0.000000 -1.000000 -0.000001
vn 0.000000 -1.000000 -0.000001
vn 0.000000 -1.000000 0.000000
vn 0.000000 -1.000000 0.000000
vn 0.000000 -1.000000 0.000000
vn 0.000000 -1.000000 0.000000
vn 0.000000 -1.000000 0.000000
vn 0.000000 -1.000000 0.000000
vn 0.000000 -1.000000 0.000001
vn 0.000000 -1.000000 0.000001
vn 0.000000 -1.000000 0.000000
vn 0.000000 -1.000000 -0.000001
vn 0.000000 -1.000000 -0.000001
vn 0.000000 -1.000000 0.000001
vn 0.000000 -1.000000 0.000001
vn 0.000000 -1.000000 0.000000
vn 0.000000 -1.000000 -0.000001
vn 0.000000 -1.000000 -0.000001
vn 0.000000 -1.000000 0.000001
vn 0.000000 -1.000000 0.000003
vn 0.000000 -1.000000 0.000001
vn 0.000000 1.000000 -0.000002
vn 0.000000 1.000000 0.000000
vn 0.000000 1.000000 -0.000000
vn 0.000000 1.000000 0.000000
vn 0.000000 1.000000 0.000000
vn 0.000000 1.000000 0.000000
vn 0.000000 1.000000 -0.000001
vn 0.000000 1.000000 0.000001
vn 0.000000 1.000000 0.000000
vn 0.000000 1.000000 -0.000000
vn 0.000000 1.000000 0.000000
vn 0.000000 1.000000 -0.000002
vn 0.000000 1.000000 0.000000
vn 0.000000 1.000000 0.000000
vn 0.000000 1.000000 0.000000
vn 0.000000 1.000000 0.000000
vn 0.000000 1.000000 -0.000001
vn 0.000000 1.000000 0.000001
vn 0.000000 1.000000 -0.000000
vn 0.000000 1.000000 -0.000000
vn 0.000000 1.000000 -0.000000
f 1/1/1 2/2/2 21/4/3
f 21/4/3 2/2/2 22/3/4
f 2/2/2 3/5/5 22/3/4
f 22/3/4 3/5/5 23/6/6
f 3/71/5 4/72/7 23/74/6
f 23/74/6 4/72/7 24/73/8
f 4/72/7 5/75/9 24/73/8
f 24/73/8 5/75/9 25/76/10
f 5/75/9 6/77/11 25/76/10
f 25/76/10 6/77/11 26/78/12
f 6/77/11 7/79/13 26/78/12
f 26/78/12 7/79/13 27/80/14
f 7/21/13 8/15/15 27/22/14
f 27/22/14 8/15/15 28/18/16
f 8/15/15 9/16/17 28/18/16
f 28/18/16 9/16/17 29/17/18
f 9/16/17 10/19/19 29/17/18
f 29/17/18 10/19/19 30/20/20
f 10/19/19 11/23/21 30/20/20
f 30/20/20 11/23/21 31/24/22
f 11/23/21 12/25/23 31/24/22
f 31/24/22 12/25/23 32/26/24
f 12/25/23 13/27/25 32/26/24
f 32/26/24 13/27/25 33/28/26
f 13/81/25 14/82/27 33/84/26
f 33/84/26 14/82/27 34/83/28
f 14/82/27 15/85/29 34/83/28
f 34/83/28 15/85/29 35/86/30
f 15/85/29 16/87/31 35/86/30
f 35/86/30 16/87/31 36/88/32
f 16/87/31 17/89/33 36/88/32
f 36/88/32 17/89/33 37/90/34
f 17/13/33 18/11/35 37/14/34
f 37/14/34 18/11/35 38/12/36
f 18/11/35 19/9/37 38/12/36
f 38/12/36 19/9/37 39/10/38
f 19/9/37 20/7/39 39/10/38
f 39/10/38 20/7/39 40/8/40
f 20/7/39 1/1/1 40/8/40
f 40/8/40 1/1/1 21/4/3
f 2/29/41 1/30/42 41/31/43
f 3/33/44 2/29/41 41/31/43
f 4/35/45 3/33/44 41/31/43
f 5/37/46 4/35/45 41/31/43
f 6/39/47 5/37/46 41/31/43
f 7/41/48 6/39/47 41/31/43
f 8/43/49 7/41/48 41/31/43
f 9/45/50 8/43/49 41/31/43
f 10/47/51 9/45/50 41/31/43
f 11/49/52 10/47/51 41/31/43
f 12/48/53 11/49/52 41/31/43
f 13/46/54 12/48/53 41/31/43
f 14/44/55 13/46/54 41/31/43
f 15/42/56 14/44/55 41/31/43
f 16/40/57 15/42/56 41/31/43
f 17/38/58 16/40/57 41/31/43
f 18/36/59 17/38/58 41/31/43
f 19/34/60 18/36/59 41/31/43
f 20/32/61 19/34/60 41/31/43
f 1/30/42 20/32/61 41/31/43
f 21/50/62 22/51/63 42/52/64
f 22/51/63 23/53/65 42/52/64
f 23/53/65 24/55/66 42/52/64
f 24/55/66 25/57/67 42/52/64
f 25/57/67 26/59/68 42/52/64
f 26/59/68 27/61/69 42/52/64
f 27/61/69 28/63/70 42/52/64
f 28/63/70 29/65/71 42/52/64
f 29/65/71 30/67/72 42/52/64
f 30/67/72 31/69/73 42/52/64
f 31/69/73 32/70/74 42/52/64
f 32/70/74 33/68/75 42/52/64
f 33/68/75 34/66/76 42/52/64
f 34/66/76 35/64/77 42/52/64
f 35/64/77 36/62/78 42/52/64
f 36/62/78 37/60/79 42/52/64
f 37/60/79 38/58/80 42/52/64
f 38/58/80 39/56/81 42/52/64
f 39/56/81 40/54/82 42/52/64
f 40/54/82 21/50/62 42/52/64
v 1.016798 0.020707 -0.330378
v 0.864940 0.020707 -0.628416
v 0.628416 0.020707 -0.864940
v 0.330378 0.020707 -1.016798
v -0.000000 0.020707 -1.069124
v -0.330378 0.020707 -1.016798
v -0.628416 0.020707 -0.864940
v -0.864940 0.020707 -0.628415
v -1.016798 0.020707 -0.330377
v -1.069124 0.020707 0.000000
v -1.016798 0.020707 0.330378
v -0.864939 0.020707 0.628415
v -0.628415 0.020707 0.864940
v -0.330378 0.020707 1.016798
v -0.000000 0.020707 1.069124
v 0.330377 0.020707 1.016797
v 0.628415 0.020707 0.864940
v 0.864939 0.020707 0.628415
v 1.016797 0.020707 0.330377
v 1.069124 0.020707 0.000000
v 1.016798 2.020707 -0.330378
v 0.864940 2.020707 -0.628416
v 0.628416 2.020707 -0.864940
v 0.330378 2.020707 -1.016798
v 0.000000 2.020707 -1.069124
v -0.330378 2.020707 -1.016798
v -0.628415 2.020707 -0.864940
v -0.864940 2.020707 -0.628415
v -1.016798 2.020707 -0.330378
v -1.069124 2.020707 0.000000
v -1.016798 2.020707 0.330378
v -0.864940 2.020707 0.628415
v -0.628415 2.020707 0.864940
v -0.330378 2.020707 1.016797
v -0.000000 2.020707 1.069124
v 0.330377 2.020707 1.016797
v 0.628415 2.020707 0.864939
v 0.864939 2.020707 0.628415
v 1.016797 2.020707 0.330377
v 1.069124 2.020707 0.000000
v -0.000000 0.020707 0.000000
v 0.000000 2.020707 0.000000
vt 0.663123 0.657546
vt 0.674843 0.657546
vt 0.674843 0.741633
vt 0.663123 0.741633
vt 0.684145 0.657546
vt 0.684145 0.741633
vt 0.650131 0.657546
vt 0.650131 0.741633
vt 0.637139 0.657546
vt 0.637139 0.741633
vt 0.625418 0.657546
vt 0.625418 0.741633
vt 0.616117 0.657546
vt 0.616117 0.741633
vt 0.745943 0.657546
vt 0.757663 0.657546
vt 0.757663 0.741633
vt 0.745943 0.741633
vt 0.770656 0.657546
vt 0.770656 0.741633
vt 0.736642 0.657546
vt 0.736642 0.741633
vt 0.783648 0.657546
vt 0.783648 0.741633
vt 0.795368 0.657546
vt 0.795368 0.741633
vt 0.804669 0.657546
vt 0.804669 0.741633
vt 0.773376 0.759830
vt 0.779348 0.771550
vt 0.739362 0.784542
vt 0.781406 0.784542
vt 0.764075 0.750529
vt 0.779348 0.797535
vt 0.752355 0.744557
vt 0.773376 0.809255
vt 0.739362 0.742499
vt 0.764075 0.818556
vt 0.726370 0.744557
vt 0.752355 0.824528
vt 0.714650 0.750529
vt 0.739362 0.826586
vt 0.705348 0.759830
vt 0.726370 0.824528
vt 0.699377 0.771550
vt 0.714650 0.818556
vt 0.697319 0.784542
vt 0.705348 0.809255
vt 0.699377 0.797535
vt 0.698146 0.882487
vt 0.692174 0.894208
vt 0.658161 0.869495
vt 0.682873 0.903509
vt 0.700204 0.869495
vt 0.671153 0.909481
vt 0.698146 0.856503
vt 0.658161 0.911539
vt 0.692174 0.844783
vt 0.645168 0.909481
vt 0.682873 0.835481
vt 0.633448 0.903509
vt 0.671153 0.829510
vt 0.624147 0.894208
vt 0.658161 0.827452
vt 0.618175 0.882487
vt 0.645168 0.829510
vt 0.616117 0.869495
vt 0.633448 0.835481
vt 0.618175 0.856503
vt 0.624147 0.844783
vt 0.734915 0.741633
vt 0.723194 0.741633
vt 0.723194 0.657546
vt 0.734915 0.657546
vt 0.710202 0.741633
vt 0.710202 0.657546
vt 0.697210 0.741633
vt 0.697210 0.657546
vt 0.685489 0.741633
vt 0.685489 0.657546
vt 0.782737 0.742499
vt 0.794457 0.742499
vt 0.794457 0.826586
vt 0.782737 0.826586
vt 0.807449 0.742499
vt 0.807449 0.826586
vt 0.820441 0.742499
vt 0.820441 0.826586
vt 0.832162 0.742499
vt 0.832162 0.826586
vn 0.951057 0.000000 -0.309016
vn 0.809017 0.000000 -0.587785
vn 0.951057 0.000000 -0.309016
vn 0.809017 0.000000 -0.587785
vn 0.587785 0.000000 -0.809017
vn 0.587785 0.000000 -0.809017
vn 0.309017 0.000000 -0.951057
vn 0.309017 0.000000 -0.951057
vn 0.000000 -0.000000 -1.000000
vn -0.000000 -0.000000 -1.000000
vn -0.309017 0.000000 -0.951057
vn -0.309017 0.000000 -0.951056
vn -0.587786 0.000000 -0.809017
vn -0.587785 0.000000 -0.809017
vn -0.809017 0.000000 -0.587785
vn -0.809017 0.000000 -0.587785
vn -0.951057 0.000000 -0.309017
vn -0.951057 -0.000000 -0.309017
vn -1.000000 -0.000000 0.000000
vn -1.000000 -0.000000 -0.000000
vn -0.951057 -0.000000 0.309017
vn -0.951057 -0.000000 0.309017
vn -0.809017 -0.000000 0.587785
vn -0.809017 -0.000000 0.587786
vn -0.587785 0.000000 0.809017
vn -0.587786 0.000000 0.809017
vn -0.309016 0.000000 0.951057
vn -0.309017 0.000000 0.951057
vn 0.000001 -0.000000 1.000000
vn -0.000000 -0.000000 1.000000
vn 0.309017 0.000000 0.951057
vn 0.309017 0.000000 0.951057
vn 0.587785 0.000000 0.809017
vn 0.587785 0.000000 0.809017
vn 0.809017 0.000000 0.587785
vn 0.809017 0.000000 0.587785
vn 0.951057 0.000000 0.309017
vn 0.951057 -0.000000 0.309017
vn 1.000000 -0.000000 0.000001
vn 1.000000 -0.000000 0.000001
vn 0.000000 -1.000000 -0.000001
vn 0.000000 -1.000000 -0.000001
vn 0.000000 -1.000000 -0.000000
vn 0.000000 -1.000000 -0.000000
vn 0.000000 -1.000000 -0.000000
vn 0.000000 -1.000000 0.000000
vn 0.000000 -1.000000 0.000000
vn 0.000000 -1.000000 0.000000
vn 0.000000 -1.000000 0.000000
vn 0.000000 -1.000000 0.000000
vn 0.000000 -1.000000 0.000000
vn 0.000000 -1.000000 0.000000
vn 0.000000 -1.000000 0.000000
vn 0.000000 -1.000000 -0.000000
vn 0.000000 -1.000000 -0.000000
vn 0.000000 -1.000000 0.000000
vn 0.000000 -1.000000 0.000000
vn 0.000000 -1.000000 0.000001
vn 0.000000 -1.000000 0.000001
vn 0.000000 -1.000000 0.000000
vn 0.000000 -1.000000 0.000000
vn 0.000000 1.000000 0.000000
vn 0.000000 1.000000 0.000000
vn 0.000000 1.000000 -0.000000
vn 0.000000 1.000000 0.000000
vn 0.000000 1.000000 0.000000
vn 0.000000 1.000000 0.000000
vn 0.000000 1.000000 0.000000
vn 0.000000 1.000000 0.000000
vn 0.000000 1.000000 0.000000
vn 0.000000 1.000000 0.000000
vn 0.000000 1.000000 0.000000
vn 0.000000 1.000000 0.000000
vn 0.000000 1.000000 0.000000
vn 0.000000 1.000000 0.000000
vn 0.000000 1.000000 0.000000
vn 0.000000 1.000000 -0.000000
vn 0.000000 1.000000 -0.000000
vn 0.000000 1.000000 0.000000
vn 0.000000 1.000000 0.000000
vn 0.000000 1.000000 0.000000
vn 0.000000 1.000000 0.000000
f 43/91/83 44/92/84 63/94/85
f 63/94/85 44/92/84 64/93/86
f 44/92/84 45/95/87 64/93/86
f 64/93/86 45/95/87 65/96/88
f 45/161/87 46/162/89 65/164/88
f 65/164/88 46/162/89 66/163/90
f 46/162/89 47/165/91 66/163/90
f 66/163/90 47/165/91 67/166/92
f 47/165/91 48/167/93 67/166/92
f 67/166/92 48/167/93 68/168/94
f 48/167/93 49/169/95 68/168/94
f 68/168/94 49/169/95 69/170/96
f 49/111/95 50/105/97 69/112/96
f 69/112/96 50/105/97 70/108/98
f 50/105/97 51/106/99 70/108/98
f 70/108/98 51/106/99 71/107/100
f 51/106/99 52/109/101 71/107/100
f 71/107/100 52/109/101 72/110/102
f 52/109/101 53/113/103 72/110/102
f 72/110/102 53/113/103 73/114/104
f 53/113/103 54/115/105 73/114/104
f 73/114/104 54/115/105 74/116/106
f 54/115/105 55/117/107 74/116/106
f 74/116/106 55/117/107 75/118/108
f 55/171/107 56/172/109 75/174/108
f 75/174/108 56/172/109 76/173/110
f 56/172/109 57/175/111 76/173/110
f 76/173/110 57/175/111 77/176/112
f 57/175/111 58/177/113 77/176/112
f 77/176/112 58/177/113 78/178/114
f 58/177/113 59/179/115 78/178/114
f 78/178/114 59/179/115 79/180/116
f 59/103/115 60/101/117 79/104/116
f 79/104/116 60/101/117 80/102/118
f 60/101/117 61/99/119 80/102/118
f 80/102/118 61/99/119 81/100/120
f 61/99/119 62/97/121 81/100/120
f 81/100/120 62/97/121 82/98/122
f 62/97/121 43/91/83 82/98/122
f 82/98/122 43/91/83 63/94/85
f 44/119/123 43/120/124 83/121/125
f 45/123/126 44/119/123 83/121/125
f 46/125/127 45/123/126 83/121/125
f 47/127/128 46/125/127 83/121/125
f 48/129/129 47/127/128 83/121/125
f 49/131/130 48/129/129 83/121/125
f 50/133/131 49/131/130 83/121/125
f 51/135/132 50/133/131 83/121/125
f 52/137/133 51/135/132 83/121/125
f 53/139/134 52/137/133 83/121/125
f 54/138/135 53/139/134 83/121/125
f 55/136/136 54/138/135 83/121/125
f 56/134/137 55/136/136 83/121/125
f 57/132/138 56/134/137 83/121/125
f 58/130/139 57/132/138 83/121/125
f 59/128/140 58/130/139 83/121/125
f 60/126/141 59/128/140 83/121/125
f 61/124/142 60/126/141 83/121/125
f 62/122/143 61/124/142 83/121/125
f 43/120/124 62/122/143 83/121/125
f 63/140/144 64/141/145 84/142/146
f 64/141/145 65/143/147 84/142/146
f 65/143/147 66/145/148 84/142/146
f 66/145/148 67/147/149 84/142/146
f 67/147/149 68/149/150 84/142/146
f 68/149/150 69/151/151 84/142/146
f 69/151/151 70/153/152 84/142/146
f 70/153/152 71/155/153 84/142/146
f 71/155/153 72/157/154 84/142/146
f 72/157/154 73/159/155 84/142/146
f 73/159/155 74/160/156 84/142/146
f 74/160/156 75/158/157 84/142/146
f 75/158/157 76/156/158 84/142/146
f 76/156/158 77/154/159 84/142/146
f 77/154/159 78/152/160 84/142/146
f 78/152/160 79/150/161 84/142/146
f 79/150/161 80/148/162 84/142/146
f 80/148/162 81/146/163 84/142/146
f 81/146/163 82/144/164 84/142/146
f 82/144/164 63/140/144 84/142/146
