# This file uses centimeters as units for non-parametric coordinates.

v 0.513493 -1.821711 -0.197629
v 0.437998 -1.821654 -0.345796
v 0.320411 -1.821609 -0.463383
v 0.172243 -1.821580 -0.538878
v 0.007998 -1.821569 -0.564892
v -0.156247 -1.821580 -0.538878
v -0.304415 -1.821609 -0.463383
v -0.422001 -1.821654 -0.345796
v -0.497496 -1.821711 -0.197629
v -0.523510 -1.821774 -0.033383
v -0.497496 -1.821837 0.130862
v -0.422001 -1.821895 0.279029
v -0.304414 -1.821940 0.396615
v -0.156247 -1.821969 0.472111
v 0.007998 -1.821979 0.498125
v 0.172243 -1.821969 0.472111
v 0.320411 -1.821940 0.396615
v 0.437997 -1.821895 0.279029
v 0.513493 -1.821837 0.130862
v 0.539506 -1.821774 -0.033383
v 0.513493 1.850289 -0.196214
v 0.437998 1.850346 -0.344382
v 0.320411 1.850391 -0.461968
v 0.172243 1.850420 -0.537463
v 0.007998 1.850430 -0.563477
v -0.156247 1.850420 -0.537463
v -0.304415 1.850391 -0.461968
v -0.422001 1.850346 -0.344382
v -0.497496 1.850289 -0.196214
v -0.523510 1.850226 -0.031969
v -0.497496 1.850162 0.132276
v -0.422001 1.850105 0.280444
v -0.304414 1.850060 0.398030
v -0.156247 1.850031 0.473525
v 0.007998 1.850021 0.499539
v 0.172243 1.850031 0.473525
v 0.320411 1.850060 0.398030
v 0.437997 1.850105 0.280444
v 0.513493 1.850162 0.132276
v 0.539506 1.850226 -0.031969
v 0.007998 -1.821774 -0.033383
v 0.007998 1.850226 -0.031969
vt 0.703322 0.442076
vt 0.710765 0.442076
vt 0.710765 0.495477
vt 0.703322 0.495477
vt 0.716672 0.442076
vt 0.716672 0.495477
vt 0.695071 0.442076
vt 0.695071 0.495477
vt 0.686820 0.442076
vt 0.686820 0.495477
vt 0.679377 0.442076
vt 0.679377 0.495477
vt 0.673470 0.442076
vt 0.673470 0.495477
vt 0.755917 0.442076
vt 0.763360 0.442076
vt 0.763360 0.495477
vt 0.755917 0.495477
vt 0.771611 0.442076
vt 0.771611 0.495477
vt 0.750010 0.442076
vt 0.750010 0.495477
vt 0.779862 0.442076
vt 0.779862 0.495477
vt 0.787305 0.442076
vt 0.787305 0.495477
vt 0.793212 0.442076
vt 0.793212 0.495477
vt 0.773339 0.507033
vt 0.777131 0.514476
vt 0.751738 0.522726
vt 0.778438 0.522726
vt 0.767432 0.501126
vt 0.777131 0.530977
vt 0.759988 0.497333
vt 0.773339 0.538421
vt 0.751738 0.496026
vt 0.767432 0.544327
vt 0.743487 0.497333
vt 0.759988 0.548120
vt 0.736044 0.501126
vt 0.751738 0.549427
vt 0.730137 0.507033
vt 0.743487 0.548120
vt 0.726345 0.514476
vt 0.736044 0.544327
vt 0.725038 0.522726
vt 0.730137 0.538421
vt 0.726345 0.530977
vt 0.725563 0.584928
vt 0.721771 0.592371
vt 0.700170 0.576677
vt 0.715864 0.598278
vt 0.726870 0.576677
vt 0.708421 0.602070
vt 0.725563 0.568426
vt 0.700170 0.603377
vt 0.721771 0.560983
vt 0.691919 0.602070
vt 0.715864 0.555076
vt 0.684476 0.598278
vt 0.708421 0.551284
vt 0.678569 0.592371
vt 0.700170 0.549977
vt 0.674777 0.584928
vt 0.691919 0.551284
vt 0.673470 0.576677
vt 0.684476 0.555076
vt 0.674777 0.568426
vt 0.678569 0.560983
vt 0.748913 0.495477
vt 0.741470 0.495477
vt 0.741470 0.442076
vt 0.748913 0.442076
vt 0.733220 0.495477
vt 0.733220 0.442076
vt 0.724969 0.495477
vt 0.724969 0.442076
vt 0.717525 0.495477
vt 0.717525 0.442076
vt 0.779283 0.496027
vt 0.786726 0.496027
vt 0.786726 0.549427
vt 0.779283 0.549427
vt 0.794977 0.496027
vt 0.794977 0.549427
vt 0.803228 0.496027
vt 0.803228 0.549427
vt 0.810671 0.496027
vt 0.810671 0.549427
vn 0.951057 0.000119 -0.309016
vn 0.809017 0.000226 -0.587785
vn 0.951057 0.000119 -0.309016
vn 0.809018 0.000227 -0.587784
vn 0.587785 0.000312 -0.809017
vn 0.587785 0.000312 -0.809017
vn 0.309017 0.000366 -0.951056
vn 0.309015 0.000366 -0.951057
vn 0.000001 0.000385 -1.000000
vn -0.000001 0.000385 -1.000000
vn -0.309017 0.000366 -0.951057
vn -0.309017 0.000366 -0.951056
vn -0.587786 0.000312 -0.809016
vn -0.587785 0.000312 -0.809017
vn -0.809017 0.000226 -0.587785
vn -0.809017 0.000226 -0.587785
vn -0.951057 0.000119 -0.309017
vn -0.951057 0.000119 -0.309017
vn -1.000000 0.000000 0.000000
vn -1.000000 0.000000 0.000000
vn -0.951057 -0.000119 0.309017
vn -0.951056 -0.000119 0.309017
vn -0.809017 -0.000226 0.587785
vn -0.809017 -0.000226 0.587785
vn -0.587784 -0.000312 0.809018
vn -0.587786 -0.000312 0.809017
vn -0.309016 -0.000366 0.951057
vn -0.309017 -0.000366 0.951056
vn 0.000002 -0.000385 1.000000
vn -0.000001 -0.000385 1.000000
vn 0.309017 -0.000366 0.951056
vn 0.309016 -0.000366 0.951057
vn 0.587784 -0.000312 0.809018
vn 0.587786 -0.000312 0.809017
vn 0.809017 -0.000226 0.587786
vn 0.809018 -0.000226 0.587784
vn 0.951056 -0.000119 0.309017
vn 0.951057 -0.000119 0.309016
vn 1.000000 0.000000 0.000001
vn 1.000000 -0.000000 0.000001
vn 0.000001 -1.000000 -0.000387
vn 0.000001 -1.000000 -0.000387
vn -0.000000 -1.000000 -0.000385
vn -0.000000 -1.000000 -0.000387
vn -0.000001 -1.000000 -0.000386
vn 0.000000 -1.000000 -0.000385
vn 0.000001 -1.000000 -0.000384
vn 0.000000 -1.000000 -0.000385
vn -0.000000 -1.000000 -0.000384
vn -0.000000 -1.000000 -0.000384
vn 0.000000 -1.000000 -0.000386
vn 0.000000 -1.000000 -0.000384
vn 0.000000 -1.000000 -0.000385
vn 0.000000 -1.000000 -0.000388
vn 0.000001 -1.000000 -0.000386
vn -0.000000 -1.000000 -0.000387
vn -0.000001 -1.000000 -0.000384
vn -0.000000 -1.000000 -0.000386
vn -0.000000 -1.000000 -0.000386
vn 0.000000 -1.000000 -0.000384
vn 0.000000 -1.000000 -0.000386
vn -0.000001 1.000000 0.000386
vn -0.000000 1.000000 0.000392
vn -0.000000 1.000000 0.000385
vn 0.000000 1.000000 0.000386
vn 0.000001 1.000000 0.000382
vn 0.000000 1.000000 0.000384
vn -0.000001 1.000000 0.000380
vn -0.000000 1.000000 0.000386
vn 0.000000 1.000000 0.000389
vn 0.000001 1.000000 0.000386
vn 0.000000 1.000000 0.000381
vn -0.000001 1.000000 0.000376
vn -0.000000 1.000000 0.000386
vn 0.000000 1.000000 0.000389
vn 0.000001 1.000000 0.000386
vn 0.000000 1.000000 0.000385
vn -0.000001 1.000000 0.000383
vn -0.000000 1.000000 0.000386
vn 0.000000 1.000000 0.000386
vn 0.000001 1.000000 0.000381
vn 0.000000 1.000000 0.000381
f 1/1/1 2/2/2 21/4/3
f 21/4/3 2/2/2 22/3/4
f 2/2/2 3/5/5 22/3/4
f 22/3/4 3/5/5 23/6/6
f 3/71/5 4/72/7 23/74/6
f 23/74/6 4/72/7 24/73/8
f 4/72/7 5/75/9 24/73/8
f 24/73/8 5/75/9 25/76/10
f 5/75/9 6/77/11 25/76/10
f 25/76/10 6/77/11 26/78/12
f 6/77/11 7/79/13 26/78/12
f 26/78/12 7/79/13 27/80/14
f 7/21/13 8/15/15 27/22/14
f 27/22/14 8/15/15 28/18/16
f 8/15/15 9/16/17 28/18/16
f 28/18/16 9/16/17 29/17/18
f 9/16/17 10/19/19 29/17/18
f 29/17/18 10/19/19 30/20/20
f 10/19/19 11/23/21 30/20/20
f 30/20/20 11/23/21 31/24/22
f 11/23/21 12/25/23 31/24/22
f 31/24/22 12/25/23 32/26/24
f 12/25/23 13/27/25 32/26/24
f 32/26/24 13/27/25 33/28/26
f 13/81/25 14/82/27 33/84/26
f 33/84/26 14/82/27 34/83/28
f 14/82/27 15/85/29 34/83/28
f 34/83/28 15/85/29 35/86/30
f 15/85/29 16/87/31 35/86/30
f 35/86/30 16/87/31 36/88/32
f 16/87/31 17/89/33 36/88/32
f 36/88/32 17/89/33 37/90/34
f 17/13/33 18/11/35 37/14/34
f 37/14/34 18/11/35 38/12/36
f 18/11/35 19/9/37 38/12/36
f 38/12/36 19/9/37 39/10/38
f 19/9/37 20/7/39 39/10/38
f 39/10/38 20/7/39 40/8/40
f 20/7/39 1/1/1 40/8/40
f 40/8/40 1/1/1 21/4/3
f 2/29/41 1/30/42 41/31/43
f 3/33/44 2/29/41 41/31/43
f 4/35/45 3/33/44 41/31/43
f 5/37/46 4/35/45 41/31/43
f 6/39/47 5/37/46 41/31/43
f 7/41/48 6/39/47 41/31/43
f 8/43/49 7/41/48 41/31/43
f 9/45/50 8/43/49 41/31/43
f 10/47/51 9/45/50 41/31/43
f 11/49/52 10/47/51 41/31/43
f 12/48/53 11/49/52 41/31/43
f 13/46/54 12/48/53 41/31/43
f 14/44/55 13/46/54 41/31/43
f 15/42/56 14/44/55 41/31/43
f 16/40/57 15/42/56 41/31/43
f 17/38/58 16/40/57 41/31/43
f 18/36/59 17/38/58 41/31/43
f 19/34/60 18/36/59 41/31/43
f 20/32/61 19/34/60 41/31/43
f 1/30/42 20/32/61 41/31/43
f 21/50/62 22/51/63 42/52/64
f 22/51/63 23/53/65 42/52/64
f 23/53/65 24/55/66 42/52/64
f 24/55/66 25/57/67 42/52/64
f 25/57/67 26/59/68 42/52/64
f 26/59/68 27/61/69 42/52/64
f 27/61/69 28/63/70 42/52/64
f 28/63/70 29/65/71 42/52/64
f 29/65/71 30/67/72 42/52/64
f 30/67/72 31/69/73 42/52/64
f 31/69/73 32/70/74 42/52/64
f 32/70/74 33/68/75 42/52/64
f 33/68/75 34/66/76 42/52/64
f 34/66/76 35/64/77 42/52/64
f 35/64/77 36/62/78 42/52/64
f 36/62/78 37/60/79 42/52/64
f 37/60/79 38/58/80 42/52/64
f 38/58/80 39/56/81 42/52/64
f 39/56/81 40/54/82 42/52/64
f 40/54/82 21/50/62 42/52/64
