# This file uses centimeters as units for non-parametric coordinates.

v 0.453856 -0.473534 -0.147467
v 0.386073 -0.473534 -0.280499
v 0.280499 -0.473534 -0.386073
v 0.147467 -0.473534 -0.453856
v 0.000000 -0.473534 -0.477213
v -0.147467 -0.473534 -0.453856
v -0.280499 -0.473534 -0.386073
v -0.386073 -0.473534 -0.280499
v -0.453856 -0.473534 -0.147467
v -0.477213 -0.473534 0.000000
v -0.453856 -0.473534 0.147467
v -0.386073 -0.473534 0.280499
v -0.280499 -0.473534 0.386073
v -0.147467 -0.473534 0.453856
v -0.000000 -0.473534 0.477213
v 0.147467 -0.473534 0.453856
v 0.280499 -0.473534 0.386073
v 0.386073 -0.473534 0.280499
v 0.453856 -0.473534 0.147467
v 0.477213 -0.473534 0.000000
v 0.453856 0.480891 -0.147467
v 0.386073 0.480891 -0.280499
v 0.280499 0.480891 -0.386073
v 0.147467 0.480891 -0.453856
v 0.000000 0.480891 -0.477213
v -0.147467 0.480891 -0.453856
v -0.280499 0.480891 -0.386073
v -0.386073 0.480891 -0.280499
v -0.453856 0.480891 -0.147467
v -0.477213 0.480891 0.000000
v -0.453856 0.480891 0.147467
v -0.386073 0.480891 0.280499
v -0.280499 0.480891 0.386073
v -0.147467 0.480891 0.453856
v -0.000000 0.480891 0.477213
v 0.147467 0.480891 0.453856
v 0.280499 0.480891 0.386073
v 0.386073 0.480891 0.280499
v 0.453856 0.480891 0.147467
v 0.477213 0.480891 0.000000
v 0.000000 -0.473534 0.000000
v 0.129800 0.480891 -0.042174
v 0.110414 0.480891 -0.080221
v 0.080221 0.480891 -0.110414
v 0.042174 0.480891 -0.129800
v 0.000000 0.480891 -0.136479
v -0.042174 0.480892 -0.129800
v -0.080221 0.480892 -0.110414
v -0.110414 0.480891 -0.080221
v -0.129800 0.480890 -0.042174
v -0.136479 0.480890 0.000000
v -0.129800 0.480890 0.042174
v -0.110414 0.480890 0.080221
v -0.080221 0.480891 0.110414
v -0.042174 0.480890 0.129800
v -0.000000 0.480891 0.136479
v 0.042174 0.480892 0.129800
v 0.080221 0.480891 0.110414
v 0.110414 0.480891 0.080221
v 0.129800 0.480891 0.042174
v 0.136479 0.480891 -0.000000
vt 0.441063 0.712417
vt 0.448821 0.712417
vt 0.441063 0.768077
vt 0.448821 0.768077
vt 0.432463 0.768077
vt 0.454978 0.712417
vt 0.432463 0.712417
vt 0.454978 0.768077
vt 0.423863 0.768077
vt 0.423863 0.712417
vt 0.416105 0.768077
vt 0.416105 0.712417
vt 0.409948 0.768077
vt 0.409948 0.712417
vt 0.336448 0.712417
vt 0.344206 0.712417
vt 0.336448 0.768077
vt 0.344206 0.768077
vt 0.330291 0.768077
vt 0.352806 0.712417
vt 0.330291 0.712417
vt 0.352806 0.768077
vt 0.361406 0.712417
vt 0.361406 0.768077
vt 0.369164 0.712417
vt 0.369164 0.768077
vt 0.375320 0.712417
vt 0.375320 0.768077
vt 0.350144 0.667607
vt 0.354097 0.675366
vt 0.327629 0.683966
vt 0.355459 0.683966
vt 0.343987 0.661451
vt 0.354097 0.692565
vt 0.336229 0.657498
vt 0.350144 0.700323
vt 0.327629 0.656136
vt 0.343987 0.706480
vt 0.319030 0.657498
vt 0.336229 0.710433
vt 0.311272 0.661451
vt 0.327629 0.711795
vt 0.305115 0.667607
vt 0.319030 0.710433
vt 0.301162 0.675366
vt 0.311272 0.706480
vt 0.299800 0.683966
vt 0.305115 0.700323
vt 0.301162 0.692565
vt 0.410909 0.692565
vt 0.406956 0.700323
vt 0.392011 0.686425
vt 0.390880 0.688644
vt 0.392400 0.683965
vt 0.400799 0.706480
vt 0.412271 0.683965
vt 0.389120 0.690405
vt 0.392011 0.681506
vt 0.393041 0.710433
vt 0.410909 0.675366
vt 0.386901 0.691535
vt 0.390880 0.679287
vt 0.384441 0.711795
vt 0.406956 0.667607
vt 0.384441 0.691925
vt 0.389120 0.677526
vt 0.375841 0.710433
vt 0.400799 0.661451
vt 0.381982 0.691535
vt 0.386901 0.676396
vt 0.368083 0.706480
vt 0.393041 0.657498
vt 0.379763 0.690405
vt 0.384441 0.676006
vt 0.361927 0.700323
vt 0.384441 0.656136
vt 0.378002 0.688644
vt 0.381982 0.676396
vt 0.357974 0.692565
vt 0.375841 0.657498
vt 0.376872 0.686425
vt 0.379763 0.677526
vt 0.356611 0.683965
vt 0.368083 0.661451
vt 0.376482 0.683965
vt 0.378002 0.679287
vt 0.357974 0.675366
vt 0.361927 0.667607
vt 0.376872 0.681506
vt 0.408992 0.768077
vt 0.401234 0.768077
vt 0.408992 0.712417
vt 0.401234 0.712417
vt 0.392634 0.768077
vt 0.392634 0.712417
vt 0.384034 0.768077
vt 0.384034 0.712417
vt 0.376276 0.768077
vt 0.376276 0.712417
vt 0.299800 0.768699
vt 0.307558 0.768699
vt 0.299800 0.824358
vt 0.307558 0.824358
vt 0.316158 0.768699
vt 0.316158 0.824358
vt 0.324757 0.768699
vt 0.324757 0.824358
vt 0.332516 0.768699
vt 0.332516 0.824358
vn 0.951057 0.000000 -0.309016
vn 0.809017 0.000000 -0.587785
vn 0.951057 0.000000 -0.309016
vn 0.809017 0.000000 -0.587785
vn 0.587786 0.000000 -0.809017
vn 0.587785 0.000000 -0.809017
vn 0.309017 0.000000 -0.951056
vn 0.309016 0.000000 -0.951057
vn -0.000000 0.000000 -1.000000
vn 0.000000 0.000000 -1.000000
vn -0.309017 0.000000 -0.951056
vn -0.309017 0.000000 -0.951057
vn -0.587786 0.000000 -0.809017
vn -0.587785 0.000000 -0.809017
vn -0.809018 0.000000 -0.587784
vn -0.809017 0.000000 -0.587786
vn -0.951057 0.000000 -0.309016
vn -0.951057 0.000000 -0.309017
vn -1.000000 0.000000 0.000000
vn -1.000000 0.000000 -0.000000
vn -0.951057 0.000000 0.309017
vn -0.951056 0.000000 0.309017
vn -0.809017 0.000000 0.587785
vn -0.809017 0.000000 0.587786
vn -0.587786 0.000000 0.809017
vn -0.587785 0.000000 0.809017
vn -0.309017 0.000000 0.951056
vn -0.309016 0.000000 0.951057
vn 0.000000 0.000000 1.000000
vn 0.000000 0.000000 1.000000
vn 0.309017 0.000000 0.951056
vn 0.309017 0.000000 0.951057
vn 0.587786 0.000000 0.809017
vn 0.587785 0.000000 0.809017
vn 0.809017 0.000000 0.587785
vn 0.809017 0.000000 0.587786
vn 0.951057 0.000000 0.309017
vn 0.951056 0.000000 0.309017
vn 1.000000 0.000000 0.000001
vn 1.000000 0.000000 0.000001
vn 0.000000 -1.000000 -0.000003
vn 0.000000 -1.000000 0.000000
vn 0.000000 -1.000000 0.000000
vn 0.000000 -1.000000 -0.000002
vn 0.000000 -1.000000 0.000002
vn 0.000000 -1.000000 0.000000
vn 0.000000 -1.000000 0.000000
vn 0.000000 -1.000000 0.000000
vn 0.000000 -1.000000 -0.000003
vn 0.000000 -1.000000 -0.000003
vn 0.000000 -1.000000 0.000000
vn 0.000000 -1.000000 0.000003
vn 0.000000 -1.000000 0.000003
vn 0.000000 -1.000000 0.000002
vn 0.000000 -1.000000 0.000000
vn 0.000000 -1.000000 -0.000002
vn 0.000000 -1.000000 0.000000
vn 0.000000 -1.000000 0.000000
vn 0.000000 -1.000000 0.000003
vn 0.000000 -1.000000 0.000003
vn 0.000000 -1.000000 0.000000
vn 0.000000 1.000000 -0.000005
vn 0.000000 1.000000 -0.000009
vn 0.000000 1.000000 0.000008
vn 0.000000 1.000000 0.000011
vn 0.000000 1.000000 -0.000002
vn 0.000000 1.000000 -0.000002
vn 0.000000 1.000000 0.000002
vn 0.000000 1.000000 0.000000
vn 0.000000 1.000000 0.000000
vn 0.000006 1.000000 0.000000
vn -0.000000 1.000000 -0.000001
vn 0.000007 1.000000 -0.000001
vn -0.000002 1.000000 -0.000001
vn -0.000005 1.000000 -0.000005
vn -0.000001 1.000000 -0.000000
vn -0.000006 1.000000 -0.000007
vn 0.000001 1.000000 -0.000000
vn 0.000000 1.000000 0.000006
vn 0.000003 1.000000 -0.000005
vn 0.000003 1.000000 0.000005
vn 0.000003 1.000000 0.000000
vn 0.000003 1.000000 -0.000009
vn 0.000002 1.000000 0.000004
vn -0.000004 1.000000 -0.000011
vn 0.000001 1.000000 0.000000
vn -0.000000 1.000000 0.000002
vn 0.000001 1.000000 -0.000001
vn 0.000002 1.000000 -0.000001
vn -0.000000 1.000000 -0.000001
vn -0.000015 1.000000 0.000003
vn 0.000000 1.000000 0.000001
vn -0.000002 1.000000 0.000004
vn 0.000001 1.000000 0.000005
vn 0.000007 1.000000 0.000000
vn 0.000000 1.000000 0.000004
vn 0.000000 1.000000 -0.000003
vn 0.000000 1.000000 0.000000
vn 0.000000 1.000000 0.000005
vn 0.000000 1.000000 0.000000
vn 0.000000 1.000000 0.000000
f 1/1/1 2/2/2 21/3/3
f 21/3/3 2/2/2 22/4/4
f 2/2/2 3/6/5 22/4/4
f 22/4/4 3/6/5 23/8/6
f 3/90/5 4/91/7 23/92/6
f 23/92/6 4/91/7 24/93/8
f 4/91/7 5/94/9 24/93/8
f 24/93/8 5/94/9 25/95/10
f 5/94/9 6/96/11 25/95/10
f 25/95/10 6/96/11 26/97/12
f 6/96/11 7/98/13 26/97/12
f 26/97/12 7/98/13 27/99/14
f 7/21/13 8/15/15 27/19/14
f 27/19/14 8/15/15 28/17/16
f 8/15/15 9/16/17 28/17/16
f 28/17/16 9/16/17 29/18/18
f 9/16/17 10/20/19 29/18/18
f 29/18/18 10/20/19 30/22/20
f 10/20/19 11/23/21 30/22/20
f 30/22/20 11/23/21 31/24/22
f 11/23/21 12/25/23 31/24/22
f 31/24/22 12/25/23 32/26/24
f 12/25/23 13/27/25 32/26/24
f 32/26/24 13/27/25 33/28/26
f 13/100/25 14/101/27 33/102/26
f 33/102/26 14/101/27 34/103/28
f 14/101/27 15/104/29 34/103/28
f 34/103/28 15/104/29 35/105/30
f 15/104/29 16/106/31 35/105/30
f 35/105/30 16/106/31 36/107/32
f 16/106/31 17/108/33 36/107/32
f 36/107/32 17/108/33 37/109/34
f 17/14/33 18/12/35 37/13/34
f 37/13/34 18/12/35 38/11/36
f 18/12/35 19/10/37 38/11/36
f 38/11/36 19/10/37 39/9/38
f 19/10/37 20/7/39 39/9/38
f 39/9/38 20/7/39 40/5/40
f 20/7/39 1/1/1 40/5/40
f 40/5/40 1/1/1 21/3/3
f 2/29/41 1/30/42 41/31/43
f 3/33/44 2/29/41 41/31/43
f 4/35/45 3/33/44 41/31/43
f 5/37/46 4/35/45 41/31/43
f 6/39/47 5/37/46 41/31/43
f 7/41/48 6/39/47 41/31/43
f 8/43/49 7/41/48 41/31/43
f 9/45/50 8/43/49 41/31/43
f 10/47/51 9/45/50 41/31/43
f 11/49/52 10/47/51 41/31/43
f 12/48/53 11/49/52 41/31/43
f 13/46/54 12/48/53 41/31/43
f 14/44/55 13/46/54 41/31/43
f 15/42/56 14/44/55 41/31/43
f 16/40/57 15/42/56 41/31/43
f 17/38/58 16/40/57 41/31/43
f 18/36/59 17/38/58 41/31/43
f 19/34/60 18/36/59 41/31/43
f 20/32/61 19/34/60 41/31/43
f 1/30/42 20/32/61 41/31/43
f 21/50/62 22/51/63 42/52/64
f 42/52/64 22/51/63 43/53/65
f 22/51/63 23/55/66 43/53/65
f 43/53/65 23/55/66 44/57/67
f 23/55/66 24/59/68 44/57/67
f 44/57/67 24/59/68 45/61/69
f 24/59/68 25/63/70 45/61/69
f 45/61/69 25/63/70 46/65/71
f 25/63/70 26/67/72 46/65/71
f 46/65/71 26/67/72 47/69/73
f 26/67/72 27/71/74 47/69/73
f 47/69/73 27/71/74 48/73/75
f 27/71/74 28/75/76 48/73/75
f 48/73/75 28/75/76 49/77/77
f 28/75/76 29/79/78 49/77/77
f 49/77/77 29/79/78 50/81/79
f 29/79/78 30/83/80 50/81/79
f 50/81/79 30/83/80 51/85/81
f 30/83/80 31/87/82 51/85/81
f 51/85/81 31/87/82 52/89/83
f 31/87/82 32/88/84 52/89/83
f 52/89/83 32/88/84 53/86/85
f 32/88/84 33/84/86 53/86/85
f 53/86/85 33/84/86 54/82/87
f 33/84/86 34/80/88 54/82/87
f 54/82/87 34/80/88 55/78/89
f 34/80/88 35/76/90 55/78/89
f 55/78/89 35/76/90 56/74/91
f 35/76/90 36/72/92 56/74/91
f 56/74/91 36/72/92 57/70/93
f 36/72/92 37/68/94 57/70/93
f 57/70/93 37/68/94 58/66/95
f 37/68/94 38/64/96 58/66/95
f 58/66/95 38/64/96 59/62/97
f 38/64/96 39/60/98 59/62/97
f 59/62/97 39/60/98 60/58/99
f 39/60/98 40/56/100 60/58/99
f 60/58/99 40/56/100 61/54/101
f 40/56/100 21/50/62 61/54/101
f 61/54/101 21/50/62 42/52/64
