# This file uses centimeters as units for non-parametric coordinates.

v 0.071635 0.545854 0.170456
v 0.235156 0.468282 0.171031
v 0.366703 0.343976 0.171487
v 0.453399 0.185104 0.171779
v 0.486758 0.007216 0.171880
v 0.463514 -0.172273 0.171779
v 0.385942 -0.335795 0.171487
v 0.261637 -0.467343 0.171031
v 0.102765 -0.554039 0.170456
v -0.075121 -0.587398 0.169820
v -0.254609 -0.564154 0.169183
v -0.418130 -0.486582 0.168608
v -0.549677 -0.362276 0.168153
v -0.636373 -0.203403 0.167860
v -0.669731 -0.025516 0.167759
v -0.646487 0.153974 0.167860
v -0.568916 0.317495 0.168153
v -0.444611 0.449043 0.168608
v -0.285739 0.535739 0.169183
v -0.107853 0.569098 0.169820
v 0.072873 0.545889 -0.176985
v 0.236393 0.468317 -0.176410
v 0.367940 0.344011 -0.175954
v 0.454636 0.185139 -0.175662
v 0.487995 0.007251 -0.175561
v 0.464751 -0.172238 -0.175662
v 0.387179 -0.335760 -0.175954
v 0.262874 -0.467308 -0.176410
v 0.104002 -0.554004 -0.176985
v -0.073884 -0.587363 -0.177621
v -0.253372 -0.564119 -0.178258
v -0.416893 -0.486547 -0.178833
v -0.548440 -0.362241 -0.179288
v -0.635136 -0.203368 -0.179581
v -0.668494 -0.025481 -0.179682
v -0.645250 0.154009 -0.179581
v -0.567679 0.317530 -0.179288
v -0.443374 0.449078 -0.178833
v -0.284502 0.535774 -0.178258
v -0.106616 0.569133 -0.177621
v -0.091487 -0.009150 0.169820
v -0.090250 -0.009115 -0.177621
vt 0.068756 0.303847
vt 0.078704 0.303847
vt 0.068756 0.375214
vt 0.078704 0.375214
vt 0.057729 0.375214
vt 0.086598 0.303847
vt 0.057729 0.303847
vt 0.086598 0.375214
vt 0.046703 0.375214
vt 0.046703 0.303847
vt 0.036755 0.375214
vt 0.036755 0.303847
vt 0.028861 0.375214
vt 0.028861 0.303847
vt 0.139048 0.303847
vt 0.148995 0.303847
vt 0.139048 0.375214
vt 0.148995 0.375214
vt 0.131153 0.375214
vt 0.160022 0.303847
vt 0.131153 0.303847
vt 0.160022 0.375214
vt 0.171049 0.303847
vt 0.171049 0.375214
vt 0.180996 0.303847
vt 0.180996 0.375214
vt 0.188890 0.303847
vt 0.188890 0.375214
vt 0.162331 0.390658
vt 0.167399 0.400606
vt 0.133462 0.411633
vt 0.169146 0.411633
vt 0.154437 0.382764
vt 0.167399 0.422659
vt 0.144489 0.377695
vt 0.162331 0.432607
vt 0.133462 0.375949
vt 0.154437 0.440501
vt 0.122436 0.377696
vt 0.144489 0.445569
vt 0.112488 0.382764
vt 0.133462 0.447316
vt 0.104594 0.390658
vt 0.122436 0.445569
vt 0.099525 0.400606
vt 0.112488 0.440501
vt 0.097779 0.411633
vt 0.104594 0.432607
vt 0.099525 0.422659
vt 0.098481 0.494761
vt 0.093413 0.504708
vt 0.064544 0.483734
vt 0.085519 0.512603
vt 0.100228 0.483734
vt 0.075571 0.517671
vt 0.098481 0.472707
vt 0.064544 0.519417
vt 0.093413 0.462760
vt 0.053518 0.517671
vt 0.085519 0.454866
vt 0.043570 0.512603
vt 0.075571 0.449797
vt 0.035676 0.504708
vt 0.064544 0.448051
vt 0.030607 0.494761
vt 0.053518 0.449797
vt 0.028861 0.483734
vt 0.043570 0.454866
vt 0.030607 0.472707
vt 0.035676 0.462760
vt 0.129687 0.375214
vt 0.119740 0.375214
vt 0.129687 0.303847
vt 0.119740 0.303847
vt 0.108713 0.375214
vt 0.108713 0.303847
vt 0.097686 0.375214
vt 0.097686 0.303847
vt 0.087739 0.375214
vt 0.087739 0.303847
vt 0.170275 0.375949
vt 0.180223 0.375949
vt 0.170275 0.447316
vt 0.180223 0.447316
vt 0.191249 0.375949
vt 0.191249 0.447316
vt 0.202276 0.375949
vt 0.202276 0.447316
vt 0.212224 0.375949
vt 0.212224 0.447316
vn 0.281983 0.959419 0.001101
vn 0.564658 0.825322 0.002094
vn 0.281984 0.959419 0.001101
vn 0.564658 0.825322 0.002094
vn 0.792059 0.610438 0.002882
vn 0.792059 0.610438 0.002882
vn 0.941927 0.335800 0.003388
vn 0.941927 0.335800 0.003388
vn 0.999593 0.028292 0.003562
vn 0.999593 0.028291 0.003562
vn 0.959412 -0.281987 0.003388
vn 0.959412 -0.281987 0.003388
vn 0.825317 -0.564662 0.002882
vn 0.825317 -0.564662 0.002882
vn 0.610435 -0.792064 0.002094
vn 0.610435 -0.792064 0.002094
vn 0.335798 -0.941934 0.001101
vn 0.335798 -0.941934 0.001101
vn 0.028291 -0.999600 -0.000000
vn 0.028291 -0.999600 -0.000000
vn -0.281985 -0.959418 -0.001101
vn -0.281985 -0.959418 -0.001101
vn -0.564658 -0.825322 -0.002094
vn -0.564658 -0.825322 -0.002094
vn -0.792059 -0.610438 -0.002882
vn -0.792059 -0.610438 -0.002882
vn -0.941927 -0.335800 -0.003388
vn -0.941927 -0.335800 -0.003388
vn -0.999593 -0.028291 -0.003562
vn -0.999593 -0.028291 -0.003562
vn -0.959412 0.281987 -0.003388
vn -0.959412 0.281987 -0.003388
vn -0.825317 0.564662 -0.002882
vn -0.825317 0.564662 -0.002882
vn -0.610434 0.792064 -0.002094
vn -0.610435 0.792064 -0.002094
vn -0.335798 0.941933 -0.001101
vn -0.335798 0.941933 -0.001101
vn -0.028292 0.999600 -0.000000
vn -0.028292 0.999600 0.000000
vn -0.003561 -0.000101 0.999994
vn -0.003561 -0.000101 0.999994
vn -0.003561 -0.000101 0.999994
vn -0.003561 -0.000101 0.999994
vn -0.003561 -0.000101 0.999994
vn -0.003561 -0.000101 0.999994
vn -0.003561 -0.000101 0.999994
vn -0.003561 -0.000101 0.999994
vn -0.003561 -0.000101 0.999994
vn -0.003561 -0.000101 0.999994
vn -0.003560 -0.000101 0.999994
vn -0.003560 -0.000101 0.999994
vn -0.003561 -0.000101 0.999994
vn -0.003561 -0.000101 0.999994
vn -0.003561 -0.000101 0.999994
vn -0.003561 -0.000101 0.999994
vn -0.003561 -0.000101 0.999994
vn -0.003561 -0.000101 0.999994
vn -0.003561 -0.000101 0.999994
vn -0.003561 -0.000101 0.999994
vn -0.003560 -0.000101 0.999994
vn 0.003562 0.000101 -0.999994
vn 0.003561 0.000101 -0.999994
vn 0.003561 0.000101 -0.999994
vn 0.003560 0.000101 -0.999994
vn 0.003561 0.000101 -0.999994
vn 0.003561 0.000101 -0.999994
vn 0.003561 0.000101 -0.999994
vn 0.003561 0.000101 -0.999994
vn 0.003561 0.000101 -0.999994
vn 0.003561 0.000101 -0.999994
vn 0.003562 0.000101 -0.999994
vn 0.003561 0.000101 -0.999994
vn 0.003560 0.000101 -0.999994
vn 0.003561 0.000101 -0.999994
vn 0.003561 0.000101 -0.999994
vn 0.003561 0.000101 -0.999994
vn 0.003561 0.000101 -0.999994
vn 0.003561 0.000101 -0.999994
vn 0.003561 0.000101 -0.999994
vn 0.003560 0.000101 -0.999994
vn 0.003560 0.000101 -0.999994
f 1/1/1 2/2/2 21/3/3
f 21/3/3 2/2/2 22/4/4
f 2/2/2 3/6/5 22/4/4
f 22/4/4 3/6/5 23/8/6
f 3/71/5 4/72/7 23/73/6
f 23/73/6 4/72/7 24/74/8
f 4/72/7 5/75/9 24/74/8
f 24/74/8 5/75/9 25/76/10
f 5/75/9 6/77/11 25/76/10
f 25/76/10 6/77/11 26/78/12
f 6/77/11 7/79/13 26/78/12
f 26/78/12 7/79/13 27/80/14
f 7/21/13 8/15/15 27/19/14
f 27/19/14 8/15/15 28/17/16
f 8/15/15 9/16/17 28/17/16
f 28/17/16 9/16/17 29/18/18
f 9/16/17 10/20/19 29/18/18
f 29/18/18 10/20/19 30/22/20
f 10/20/19 11/23/21 30/22/20
f 30/22/20 11/23/21 31/24/22
f 11/23/21 12/25/23 31/24/22
f 31/24/22 12/25/23 32/26/24
f 12/25/23 13/27/25 32/26/24
f 32/26/24 13/27/25 33/28/26
f 13/81/25 14/82/27 33/83/26
f 33/83/26 14/82/27 34/84/28
f 14/82/27 15/85/29 34/84/28
f 34/84/28 15/85/29 35/86/30
f 15/85/29 16/87/31 35/86/30
f 35/86/30 16/87/31 36/88/32
f 16/87/31 17/89/33 36/88/32
f 36/88/32 17/89/33 37/90/34
f 17/14/33 18/12/35 37/13/34
f 37/13/34 18/12/35 38/11/36
f 18/12/35 19/10/37 38/11/36
f 38/11/36 19/10/37 39/9/38
f 19/10/37 20/7/39 39/9/38
f 39/9/38 20/7/39 40/5/40
f 20/7/39 1/1/1 40/5/40
f 40/5/40 1/1/1 21/3/3
f 2/29/41 1/30/42 41/31/43
f 3/33/44 2/29/41 41/31/43
f 4/35/45 3/33/44 41/31/43
f 5/37/46 4/35/45 41/31/43
f 6/39/47 5/37/46 41/31/43
f 7/41/48 6/39/47 41/31/43
f 8/43/49 7/41/48 41/31/43
f 9/45/50 8/43/49 41/31/43
f 10/47/51 9/45/50 41/31/43
f 11/49/52 10/47/51 41/31/43
f 12/48/53 11/49/52 41/31/43
f 13/46/54 12/48/53 41/31/43
f 14/44/55 13/46/54 41/31/43
f 15/42/56 14/44/55 41/31/43
f 16/40/57 15/42/56 41/31/43
f 17/38/58 16/40/57 41/31/43
f 18/36/59 17/38/58 41/31/43
f 19/34/60 18/36/59 41/31/43
f 20/32/61 19/34/60 41/31/43
f 1/30/42 20/32/61 41/31/43
f 21/50/62 22/51/63 42/52/64
f 22/51/63 23/53/65 42/52/64
f 23/53/65 24/55/66 42/52/64
f 24/55/66 25/57/67 42/52/64
f 25/57/67 26/59/68 42/52/64
f 26/59/68 27/61/69 42/52/64
f 27/61/69 28/63/70 42/52/64
f 28/63/70 29/65/71 42/52/64
f 29/65/71 30/67/72 42/52/64
f 30/67/72 31/69/73 42/52/64
f 31/69/73 32/70/74 42/52/64
f 32/70/74 33/68/75 42/52/64
f 33/68/75 34/66/76 42/52/64
f 34/66/76 35/64/77 42/52/64
f 35/64/77 36/62/78 42/52/64
f 36/62/78 37/60/79 42/52/64
f 37/60/79 38/58/80 42/52/64
f 38/58/80 39/56/81 42/52/64
f 39/56/81 40/54/82 42/52/64
f 40/54/82 21/50/62 42/52/64
