# This file uses centimeters as units for non-parametric coordinates.

v -2.909600 -2.958433 1.798994
v 2.680511 -2.958433 1.798994
v -2.909600 2.903017 1.798994
v 2.680511 2.903017 1.798994
v -2.909600 2.903017 -1.798994
v 2.680511 2.903017 -1.798994
v -2.909600 -2.958433 -1.798994
v 2.680511 -2.958433 -1.798994
v -1.791674 2.903017 1.798994
v -1.791674 2.903017 -1.798994
v -1.791674 -2.958433 -1.798994
v -1.791674 -2.958433 1.798994
v 1.815847 2.903017 1.798994
v 1.815847 2.903017 -1.798994
v 1.815847 -2.958433 -1.798994
v 1.815847 -2.958433 1.798994
v -2.909600 4.105028 3.777861
v -1.791674 4.105028 3.777861
v -1.791674 4.105028 0.179873
v -2.909600 4.105028 0.179873
v 1.815847 4.105028 3.777861
v 2.680511 4.105028 3.777861
v 2.680511 4.105028 0.179873
v 1.815847 4.105028 0.179873
vt 0.298029 0.866607
vt 0.298029 0.826061
vt 0.338575 0.866607
vt 0.338575 0.826061
vt 0.346889 0.848361
vt 0.346889 0.888906
vt 0.347820 0.888906
vt 0.347820 0.848361
vt 0.388366 0.888906
vt 0.388366 0.848361
vt 0.396680 0.866607
vt 0.396680 0.826061
vt 0.404835 0.826061
vt 0.413149 0.848361
vt 0.404835 0.866607
vt 0.413149 0.888906
vt 0.412503 0.952280
vt 0.412503 0.911735
vt 0.420817 0.929980
vt 0.420817 0.889435
vt 0.288974 0.826061
vt 0.297082 0.826061
vt 0.288974 0.866607
vt 0.297082 0.866607
vt 0.288974 0.888906
vt 0.297082 0.888906
vt 0.288974 0.930509
vt 0.297082 0.930509
vt 0.288974 0.971054
vt 0.297082 0.971054
vt 0.323248 0.971054
vt 0.323248 0.930509
vt 0.329519 0.971054
vt 0.329519 0.930509
vt 0.330535 0.930509
vt 0.356701 0.930509
vt 0.330535 0.971054
vt 0.356701 0.971054
vt 0.397611 0.826061
vt 0.403883 0.826061
vt 0.397611 0.866607
vt 0.403883 0.866607
vt 0.397611 0.888906
vt 0.403883 0.888906
vt 0.357623 0.930509
vt 0.365732 0.930509
vt 0.357623 0.952808
vt 0.365732 0.952808
vt 0.366653 0.930509
vt 0.372924 0.930509
vt 0.366653 0.952808
vt 0.372924 0.952808
vt 0.371145 0.889435
vt 0.379253 0.889435
vt 0.371145 0.929980
vt 0.379253 0.929980
vt 0.405419 0.929980
vt 0.405419 0.889435
vt 0.411691 0.929980
vt 0.411691 0.889435
vt 0.329787 0.889435
vt 0.337896 0.889435
vt 0.329787 0.929980
vt 0.337896 0.929980
vt 0.364061 0.929980
vt 0.364061 0.889435
vt 0.370333 0.929980
vt 0.370333 0.889435
vn 0.000000 0.000000 1.000000
vn 0.000000 0.000000 1.000000
vn 0.000000 0.000000 1.000000
vn 0.000000 0.000000 1.000000
vn 0.000000 1.000000 0.000000
vn 0.000000 1.000000 0.000000
vn 0.000000 1.000000 0.000000
vn 0.000000 1.000000 0.000000
vn 0.000000 0.000000 -1.000000
vn 0.000000 0.000000 -1.000000
vn 0.000000 0.000000 -1.000000
vn 0.000000 0.000000 -1.000000
vn 0.000000 -1.000000 0.000000
vn 0.000000 -1.000000 0.000000
vn 0.000000 -1.000000 0.000000
vn 0.000000 -1.000000 0.000000
vn 1.000000 0.000000 0.000000
vn 1.000000 0.000000 0.000000
vn 1.000000 -0.000000 0.000000
vn 1.000000 0.000000 0.000000
vn -1.000000 0.000000 0.000000
vn -1.000000 0.000000 0.000000
vn -1.000000 0.000000 0.000000
vn -1.000000 -0.000000 0.000000
vn 0.000000 1.000000 0.000000
vn 0.000000 1.000000 0.000000
vn 0.000000 1.000000 0.000000
vn 0.000000 1.000000 0.000000
vn 0.000000 0.000000 -1.000000
vn 0.000000 0.000000 -1.000000
vn 0.000000 -1.000000 0.000000
vn 0.000000 -1.000000 0.000000
vn 0.000000 0.000000 1.000000
vn 0.000000 0.000000 1.000000
vn 0.000000 1.000000 0.000000
vn 0.000000 1.000000 0.000000
vn 0.000000 1.000000 0.000000
vn 0.000000 1.000000 0.000000
vn 0.000000 0.000000 -1.000000
vn 0.000000 0.000000 -1.000000
vn 0.000000 -1.000000 0.000000
vn 0.000000 -1.000000 0.000000
vn 0.000000 0.000000 1.000000
vn 0.000000 0.000000 1.000000
vn 0.000000 -0.854681 0.519153
vn 0.000000 -0.854681 0.519153
vn 0.000000 -0.854681 0.519154
vn 0.000000 -0.854681 0.519154
vn 1.000000 0.000000 0.000000
vn 1.000000 0.000000 0.000000
vn 1.000000 0.000000 0.000000
vn 1.000000 0.000000 0.000000
vn 0.000000 0.854681 -0.519153
vn 0.000000 0.854681 -0.519153
vn 0.000000 0.854681 -0.519154
vn 0.000000 0.854681 -0.519154
vn -1.000000 0.000000 0.000000
vn -1.000000 -0.000000 0.000000
vn 0.000000 -0.854681 0.519154
vn 0.000000 -0.854681 0.519154
vn 0.000000 -0.854681 0.519154
vn 0.000000 -0.854681 0.519154
vn 1.000000 -0.000000 0.000000
vn 1.000000 -0.000000 0.000000
vn 0.000000 0.854681 -0.519154
vn 0.000000 0.854681 -0.519153
vn 0.000000 0.854681 -0.519153
vn 0.000000 0.854681 -0.519153
vn -1.000000 0.000000 0.000000
vn -1.000000 0.000000 0.000000
vn -1.000000 0.000000 0.000000
vn -1.000000 0.000000 0.000000
f 1/53/1 12/54/2 3/55/3
f 3/55/3 12/54/2 9/56/4
f 17/21/5 18/22/6 20/23/7
f 20/23/7 18/22/6 19/24/8
f 5/61/9 10/62/10 7/63/11
f 7/63/11 10/62/10 11/64/12
f 7/27/13 11/28/14 1/29/15
f 1/29/15 11/28/14 12/30/16
f 2/1/17 8/2/18 4/3/19
f 4/3/19 8/2/18 6/4/20
f 7/7/21 1/8/22 5/9/23
f 5/9/23 1/8/22 3/10/24
f 9/35/25 13/36/26 10/37/27
f 10/37/27 13/36/26 14/38/28
f 11/64/12 10/62/10 15/65/29
f 15/65/29 10/62/10 14/66/30
f 12/30/16 11/28/14 16/31/31
f 16/31/31 11/28/14 15/32/32
f 9/56/4 12/54/2 13/57/33
f 13/57/33 12/54/2 16/58/34
f 21/39/35 22/40/36 24/41/37
f 24/41/37 22/40/36 23/42/38
f 15/65/29 14/66/30 8/67/39
f 8/67/39 14/66/30 6/68/40
f 16/31/31 15/32/32 2/33/41
f 2/33/41 15/32/32 8/34/42
f 13/57/33 16/58/34 4/59/43
f 4/59/43 16/58/34 2/60/44
f 3/45/45 9/46/46 17/47/47
f 17/47/47 9/46/46 18/48/48
f 10/13/49 19/14/50 9/15/51
f 9/15/51 19/14/50 18/16/52
f 10/26/53 5/25/54 19/24/55
f 19/24/55 5/25/54 20/23/56
f 5/9/23 3/10/24 20/11/57
f 20/11/57 3/10/24 17/12/58
f 13/49/59 4/50/60 21/51/61
f 21/51/61 4/50/60 22/52/62
f 6/4/20 23/5/63 4/3/19
f 4/3/19 23/5/63 22/6/64
f 6/44/65 14/43/66 23/42/67
f 23/42/67 14/43/66 24/41/68
f 14/17/69 13/18/70 24/19/71
f 24/19/71 13/18/70 21/20/72
